<svg width="36" height="26" viewBox="0 0 36 26" fill="none" xmlns="http://www.w3.org/2000/svg">
<path d="M0 0H36V26H0V0Z" fill="#05AB41"/>
<path d="M7.1881 13.3681C6.9385 13.1931 6.9361 12.9105 7.1881 12.7337L17.8217 5.28039C18.0713 5.10532 18.4737 5.10359 18.7257 5.28039L29.3593 12.7337C29.6089 12.9088 29.6113 13.1913 29.3593 13.3681L18.7257 20.8215C18.4761 20.9965 18.0737 20.9983 17.8217 20.8215L7.1881 13.3681Z" fill="#FDD216"/>
<path d="M18.3272 18.3159C21.0078 18.3159 23.1808 15.9618 23.1808 13.0579C23.1808 10.1539 21.0078 7.7998 18.3272 7.7998C15.6467 7.7998 13.4736 10.1539 13.4736 13.0579C13.4736 15.9618 15.6467 18.3159 18.3272 18.3159Z" fill="#053087"/>
<mask id="mask0" mask-type="alpha" maskUnits="userSpaceOnUse" x="13" y="7" width="11" height="12">
<path fill-rule="evenodd" clip-rule="evenodd" d="M18.3272 18.3159C21.0078 18.3159 23.1808 15.9618 23.1808 13.0579C23.1808 10.1539 21.0078 7.7998 18.3272 7.7998C15.6467 7.7998 13.4736 10.1539 13.4736 13.0579C13.4736 15.9618 15.6467 18.3159 18.3272 18.3159Z" fill="white"/>
</mask>
<g mask="url(#mask0)">
<path d="M12.8979 11.683C13.6602 11.0142 16.1189 11.648 18.4147 12.3111C20.7097 12.9742 23.1038 14.3649 23.7133 15.1802" stroke="white" stroke-width="1.333" stroke-linecap="square"/>
</g>
</svg>
