<svg width="36" height="26" viewBox="0 0 36 26" fill="none" xmlns="http://www.w3.org/2000/svg">
<path d="M36 0H0V26H36V0Z" fill="white"/>
<path d="M15.5992 0V10.4H0V15.6H15.5992V26H20.3985V15.6H36V10.4H20.3985V0H15.5992Z" fill="#FF0000"/>
<path d="M7.94447 1.89551H6.29297V3.24967H4.88672V4.84001H6.29297V6.19418H7.94447V4.84001H9.35072V3.24967H7.94447V1.89551Z" fill="#FF0000"/>
<path d="M29.1621 3.24967V1.89551H27.5106V3.24967H26.1043V4.84001H27.5106V6.19418H29.1621V4.84001H30.5683V3.24967H29.1621Z" fill="#FF0000"/>
<path d="M7.94447 19.7666H6.29297V21.1208H4.88672V22.7111H6.29297V24.0653H7.94447V22.7111H9.35072V21.1208H7.94447V19.7666Z" fill="#FF0000"/>
<path d="M29.162 19.7666H27.5105V21.1208H26.1042V22.7111H27.5105V24.0653H29.162V22.7111H30.5682V21.1208H29.162V19.7666Z" fill="#FF0000"/>
</svg>
