<svg width="36" height="26" viewBox="0 0 36 26" fill="none" xmlns="http://www.w3.org/2000/svg">
<path d="M36 0H0V26H36V0Z" fill="#0038A8"/>
<path d="M36 0H0V17.3333H36V0Z" fill="white"/>
<path d="M36 0H0V8.66667H36V0Z" fill="#D52B1E"/>
<path d="M21.4581 13.0217C21.4581 14.8569 19.9146 16.3454 18.0088 16.3454C16.1031 16.3454 14.5596 14.8569 14.5596 13.0217C14.5596 11.1865 16.1053 9.7002 18.0088 9.7002C19.9123 9.7002 21.4581 11.1865 21.4581 13.0217Z" fill="white" stroke="black" stroke-width="0.0676" stroke-miterlimit="10"/>
<path d="M15.8462 14.3498L15.8147 14.3043C15.8124 14.3 15.8034 14.2913 15.7922 14.2783C15.7854 14.2718 15.7787 14.2675 15.7697 14.2675C15.7607 14.2653 15.7517 14.2653 15.7427 14.2718C15.7314 14.2783 15.7247 14.287 15.7224 14.2978C15.7202 14.3086 15.7269 14.3238 15.7382 14.3455L15.7674 14.3953L15.8462 14.3498ZM16.1364 14.3346L15.7629 14.5491L15.6482 14.3628C15.6257 14.3281 15.6122 14.3021 15.6077 14.2805C15.6009 14.2588 15.6054 14.2371 15.6144 14.2176C15.6234 14.196 15.6414 14.1786 15.6662 14.1656C15.6842 14.1526 15.7044 14.1461 15.7269 14.1461C15.7472 14.1461 15.7674 14.1505 15.7854 14.1613C15.7967 14.1656 15.8102 14.1765 15.8237 14.1895C15.8214 14.1743 15.8192 14.1635 15.8192 14.1526C15.8214 14.1483 15.8237 14.1375 15.8282 14.1245C15.8349 14.1115 15.8394 14.1006 15.8417 14.0963L15.9182 13.9793L15.9947 14.105L15.9182 14.2306C15.9069 14.2458 15.9024 14.2588 15.9024 14.2675C15.9024 14.2783 15.9047 14.2891 15.9114 14.3L15.9182 14.3108L16.0712 14.2241L16.1364 14.3346ZM15.4772 14.04L15.3624 13.7106L15.4502 13.6825L15.5222 13.8883L15.5874 13.8666L15.5199 13.6738L15.6054 13.6478L15.6729 13.8385L15.7539 13.8125L15.6797 13.6001L15.7742 13.5698L15.8912 13.9056L15.4772 14.04ZM15.4884 13.3683L15.4839 13.338C15.4817 13.312 15.4749 13.2946 15.4637 13.286C15.4547 13.2773 15.4412 13.273 15.4277 13.2751C15.4142 13.2773 15.4029 13.2838 15.3962 13.2925C15.3872 13.3011 15.3827 13.3185 15.3872 13.3423L15.3917 13.3791L15.4884 13.3683ZM15.3197 13.52L15.2927 13.3055C15.2882 13.26 15.2949 13.2231 15.3152 13.1971C15.3354 13.1711 15.3669 13.156 15.4097 13.1516C15.4524 13.1473 15.4884 13.156 15.5177 13.1776C15.5447 13.1993 15.5627 13.2383 15.5694 13.2903L15.5784 13.3618L15.7382 13.3445L15.7517 13.4701L15.3197 13.52ZM15.3039 12.6988L15.3174 12.5688L15.5762 12.5948C15.6009 12.597 15.6257 12.6035 15.6459 12.6143C15.6684 12.6251 15.6864 12.6381 15.7022 12.6576C15.7179 12.6771 15.7292 12.6945 15.7337 12.714C15.7404 12.74 15.7427 12.7703 15.7382 12.8071C15.7359 12.8288 15.7314 12.8505 15.7269 12.8721C15.7224 12.896 15.7134 12.9155 15.7022 12.9306C15.6909 12.9458 15.6752 12.961 15.6594 12.9718C15.6437 12.9826 15.6257 12.9891 15.6054 12.9935C15.5784 12.9978 15.5537 13 15.5312 12.9978L15.2747 12.9718L15.2882 12.8418L15.5514 12.87C15.5762 12.8721 15.5942 12.8678 15.6099 12.8548C15.6257 12.844 15.6324 12.8266 15.6369 12.805C15.6392 12.7833 15.6324 12.766 15.6212 12.7508C15.6099 12.7356 15.5919 12.7291 15.5672 12.727L15.3039 12.6988ZM15.7382 12.3456L15.7607 12.2828C15.7674 12.2611 15.7697 12.246 15.7652 12.233C15.7607 12.2243 15.7517 12.2156 15.7382 12.2113C15.7269 12.207 15.7157 12.2091 15.7044 12.2135C15.6932 12.22 15.6842 12.2351 15.6774 12.2546L15.6549 12.3175L15.7382 12.3456ZM15.5762 12.2915L15.5964 12.2395C15.6032 12.22 15.6054 12.2048 15.6009 12.1961C15.5964 12.1875 15.5897 12.1788 15.5762 12.1745C15.5649 12.1701 15.5537 12.1701 15.5447 12.1766C15.5334 12.181 15.5244 12.1918 15.5177 12.2113L15.4974 12.2655L15.5762 12.2915ZM15.3692 12.3608L15.4524 12.1311C15.4682 12.0921 15.4884 12.0683 15.5154 12.0531C15.5402 12.0401 15.5717 12.038 15.5987 12.0466C15.6234 12.0553 15.6414 12.0705 15.6527 12.09C15.6617 12.103 15.6662 12.1225 15.6662 12.142C15.6842 12.116 15.7022 12.0986 15.7247 12.0921C15.7472 12.0835 15.7719 12.0856 15.7989 12.0943C15.8192 12.1008 15.8372 12.1116 15.8507 12.1268C15.8642 12.142 15.8732 12.1593 15.8777 12.1788C15.8799 12.1918 15.8777 12.2091 15.8732 12.2286C15.8664 12.2611 15.8619 12.2785 15.8574 12.2871L15.7809 12.4995L15.3692 12.3608ZM15.5919 11.8235L15.6617 11.713L15.9429 11.8776L16.0532 11.7043L16.1454 11.7585L15.9654 12.0401L15.5919 11.8235ZM15.8799 11.4096L15.9677 11.31L16.3007 11.5808L16.2129 11.6805L15.8799 11.4096ZM16.4852 11.1843L16.5977 11.1366C16.6112 11.167 16.6202 11.193 16.6224 11.2211C16.6224 11.2471 16.6179 11.2731 16.6067 11.297C16.5932 11.323 16.5729 11.3446 16.5437 11.3706C16.5054 11.3988 16.4717 11.4183 16.4402 11.427C16.4087 11.4356 16.3727 11.4335 16.3322 11.4205C16.2939 11.4075 16.2579 11.3815 16.2242 11.3425C16.1769 11.2883 16.1567 11.2363 16.1612 11.1843C16.1657 11.1323 16.1949 11.0846 16.2489 11.0413C16.2917 11.0066 16.3322 10.9871 16.3704 10.985C16.4087 10.9806 16.4492 10.9936 16.4897 11.0175L16.4154 11.1106C16.4042 11.1041 16.3929 11.0976 16.3862 11.0976C16.3749 11.0933 16.3614 11.0933 16.3502 11.0976C16.3367 11.0998 16.3254 11.1041 16.3164 11.1128C16.2917 11.1323 16.2827 11.1561 16.2849 11.1843C16.2872 11.206 16.3007 11.2298 16.3254 11.2601C16.3569 11.2948 16.3839 11.3165 16.4064 11.3208C16.4289 11.3251 16.4514 11.3186 16.4717 11.3035C16.4919 11.284 16.5032 11.2666 16.5032 11.2471C16.5032 11.2276 16.4987 11.206 16.4852 11.1843ZM16.9262 10.9308L16.8114 10.8181L16.8407 10.9741L16.9262 10.9308ZM16.9937 11.0001L16.8587 11.0673L16.8722 11.1388L16.7484 11.1973L16.6967 10.7531L16.8272 10.6881L17.1714 10.9915L17.0477 11.0521L16.9937 11.0001ZM17.5247 10.5625L17.5584 10.79L17.5922 10.7856C17.6192 10.7813 17.6394 10.7748 17.6507 10.7683C17.6619 10.7596 17.6687 10.7488 17.6732 10.7336C17.6777 10.7185 17.6777 10.6946 17.6732 10.66C17.6664 10.6166 17.6552 10.5863 17.6372 10.5733C17.6192 10.5581 17.5944 10.5516 17.5584 10.5581L17.5247 10.5625ZM17.3784 10.4866L17.5764 10.4585C17.6147 10.4541 17.6462 10.4541 17.6732 10.4606C17.7002 10.4671 17.7204 10.4801 17.7407 10.4953C17.7587 10.5126 17.7744 10.5321 17.7834 10.5581C17.7947 10.5841 17.8014 10.6101 17.8059 10.6383C17.8127 10.6816 17.8127 10.7185 17.8059 10.7423C17.7992 10.7683 17.7879 10.79 17.7699 10.8116C17.7542 10.829 17.7362 10.8441 17.7159 10.8528C17.6912 10.8636 17.6642 10.8701 17.6372 10.8745L17.4392 10.9026L17.3784 10.4866ZM17.9724 10.4043L18.3324 10.4303L18.3257 10.5191L18.1007 10.504L18.0939 10.5711L18.3032 10.5863L18.2964 10.6708L18.0872 10.6556L18.0827 10.738L18.3144 10.7553L18.3077 10.8485L17.9387 10.8225L17.9724 10.4043ZM18.5259 10.4541L18.6564 10.4888L18.5664 10.7943L18.7689 10.8485L18.7397 10.9481L18.4067 10.8571L18.5259 10.4541ZM19.2617 10.92L19.2887 10.9373C19.3112 10.9503 19.3292 10.9568 19.3404 10.9546C19.3539 10.9546 19.3652 10.946 19.3719 10.9351C19.3787 10.9243 19.3809 10.9135 19.3809 10.9005C19.3809 10.8875 19.3697 10.8745 19.3472 10.8615L19.3157 10.8398L19.2617 10.92ZM19.2527 10.699L19.4394 10.8181C19.4799 10.8441 19.5047 10.8723 19.5114 10.9048C19.5182 10.9373 19.5114 10.9698 19.4867 11.0045C19.4642 11.037 19.4327 11.0586 19.3967 11.0651C19.3607 11.0695 19.3202 11.0586 19.2752 11.0305L19.2144 10.9915L19.1267 11.1215L19.0142 11.05L19.2527 10.699ZM19.7252 11.3381L19.8017 11.1995L19.6577 11.2731L19.7252 11.3381ZM19.6779 11.4226L19.5699 11.3186L19.5047 11.3533L19.4057 11.2601L19.6082 11.1713L19.8287 11.0716L19.9322 11.1713L19.7432 11.583L19.6442 11.4855L19.6779 11.4226ZM20.0829 11.6046L20.1144 11.6523C20.1189 11.6566 20.1257 11.6653 20.1392 11.6783C20.1459 11.6848 20.1549 11.687 20.1617 11.6891C20.1707 11.6891 20.1797 11.687 20.1864 11.6826C20.1999 11.674 20.2067 11.6653 20.2089 11.6545C20.2112 11.6436 20.2044 11.6285 20.1909 11.6068L20.1594 11.5591L20.0829 11.6046ZM19.7927 11.6285L20.1594 11.4031L20.2809 11.5851C20.3034 11.6198 20.3169 11.6458 20.3237 11.6675C20.3282 11.6891 20.3282 11.7108 20.3169 11.7303C20.3079 11.752 20.2922 11.7693 20.2697 11.7845C20.2494 11.7975 20.2292 11.8061 20.2089 11.8061C20.1887 11.8061 20.1684 11.8018 20.1504 11.7931C20.1347 11.7845 20.1212 11.7758 20.1099 11.7628C20.1144 11.7801 20.1167 11.791 20.1144 11.7996C20.1144 11.8105 20.1099 11.8191 20.1077 11.83C20.1054 11.8408 20.1009 11.8495 20.0942 11.8581L20.0244 11.9773L19.9412 11.8538L20.0154 11.726C20.0244 11.7086 20.0312 11.6978 20.0312 11.6891C20.0312 11.6783 20.0289 11.6675 20.0222 11.6566L20.0154 11.648L19.8647 11.739L19.7927 11.6285ZM20.3079 12.1961L20.4384 12.1008L20.2742 12.1095L20.3079 12.1961ZM20.2292 12.2503L20.1752 12.1116L20.1009 12.1181L20.0537 11.9925L20.5194 11.9968L20.5689 12.129L20.2157 12.4236L20.1684 12.2936L20.2292 12.2503ZM20.4362 12.6988L20.5262 12.688L20.5532 12.8873L20.3687 12.909C20.3372 12.8743 20.3147 12.844 20.3012 12.8136C20.2877 12.7855 20.2787 12.7508 20.2719 12.7118C20.2652 12.662 20.2697 12.6208 20.2832 12.5883C20.2967 12.5536 20.3192 12.5276 20.3507 12.5038C20.3822 12.4821 20.4227 12.4691 20.4654 12.4648C20.5127 12.4583 20.5554 12.4626 20.5914 12.4778C20.6297 12.493 20.6589 12.5168 20.6814 12.5493C20.7017 12.5775 20.7152 12.6143 20.7197 12.662C20.7264 12.7075 20.7264 12.7421 20.7197 12.766C20.7152 12.7898 20.7039 12.8115 20.6882 12.8288C20.6702 12.8483 20.6477 12.8635 20.6229 12.8721L20.5847 12.7508C20.6004 12.7421 20.6117 12.7335 20.6184 12.7205C20.6252 12.7075 20.6274 12.6901 20.6252 12.6728C20.6207 12.6446 20.6072 12.623 20.5869 12.6078C20.5622 12.5926 20.5307 12.5883 20.4857 12.5948C20.4384 12.5991 20.4069 12.6121 20.3889 12.6316C20.3709 12.6511 20.3642 12.6771 20.3687 12.7075C20.3709 12.7226 20.3754 12.7356 20.3799 12.7465C20.3867 12.7595 20.3957 12.7725 20.4069 12.7898L20.4497 12.7833L20.4362 12.6988ZM20.7129 13.3271L20.6972 13.4571L20.4407 13.429C20.4159 13.4268 20.3912 13.4203 20.3687 13.4095C20.3462 13.3986 20.3282 13.3856 20.3124 13.3661C20.2989 13.3488 20.2877 13.3293 20.2832 13.312C20.2764 13.2838 20.2764 13.2535 20.2787 13.2188C20.2809 13.1993 20.2854 13.1755 20.2899 13.1538C20.2967 13.13 20.3057 13.1105 20.3169 13.0953C20.3282 13.0801 20.3417 13.0671 20.3597 13.0541C20.3777 13.0433 20.3957 13.0346 20.4137 13.0325C20.4429 13.0281 20.4677 13.026 20.4879 13.0281L20.7467 13.0563L20.7309 13.1863L20.4654 13.156C20.4429 13.1538 20.4227 13.1581 20.4069 13.169C20.3934 13.1798 20.3844 13.1971 20.3822 13.2188C20.3799 13.2426 20.3844 13.26 20.3957 13.273C20.4069 13.286 20.4249 13.2946 20.4474 13.299L20.7129 13.3271ZM20.3124 13.806L20.4767 13.8125L20.3439 13.7193L20.3124 13.806ZM20.2134 13.8016L20.2629 13.663L20.2022 13.6196L20.2472 13.494L20.6049 13.78L20.5577 13.9165L20.0942 13.9273L20.1392 13.7995L20.2134 13.8016ZM20.4542 14.1873L20.3799 14.313H20.2089L20.2922 14.4581L20.2134 14.5795L20.0807 14.3151L19.9232 14.2263L19.9929 14.1136L20.1504 14.2025L20.4542 14.1873Z" fill="black"/>
<path d="M20.8971 13.0213C20.8971 14.5574 19.6034 15.8033 18.0081 15.8033C16.4129 15.8033 15.1191 14.5574 15.1191 13.0213C15.1191 11.4851 16.4129 10.2393 18.0081 10.2393C19.6056 10.2393 20.8971 11.4851 20.8971 13.0213Z" stroke="black" stroke-width="0.027" stroke-miterlimit="10"/>
<path d="M20.1576 13.0106C20.1576 14.1546 19.1946 15.0797 18.0089 15.0797C16.8209 15.0797 15.8601 14.1524 15.8601 13.0106C15.8601 11.8687 16.8231 10.9414 18.0089 10.9414C19.1946 10.9414 20.1576 11.8687 20.1576 13.0106Z" stroke="black" stroke-width="0.027" stroke-miterlimit="10"/>
<path d="M18.0088 12.2676L18.1888 12.7659L18.7355 12.7767L18.299 13.0952L18.4565 13.6001L18.0065 13.3011L17.5565 13.6001L17.714 13.0952L17.2798 12.7767L17.8265 12.7659L18.0088 12.2676Z" fill="#FEDF00" stroke="black" stroke-width="0.011"/>
<path d="M19.8539 13.6132C19.8157 13.6262 19.7999 13.6371 19.7999 13.6371C19.7122 13.6609 19.6762 13.7151 19.6357 13.7606C19.6177 13.7801 19.5929 13.7974 19.5164 13.8299C19.5659 13.8061 19.6087 13.7736 19.6312 13.7476C19.6627 13.7129 19.6717 13.6999 19.6807 13.6717C19.7032 13.5981 19.7054 13.5569 19.7257 13.5309C19.7999 13.4421 19.8112 13.4139 19.8157 13.3727C19.8157 13.3641 19.7774 13.3944 19.7572 13.4052C19.7167 13.4291 19.7009 13.4291 19.6199 13.4486C19.5344 13.4702 19.5367 13.5222 19.5232 13.5461C19.5187 13.5569 19.4849 13.5959 19.4692 13.6046C19.4534 13.6111 19.4129 13.6674 19.3972 13.6999C19.3859 13.7237 19.3679 13.7411 19.3522 13.7389C19.3364 13.7367 19.3837 13.5634 19.3949 13.5352C19.4062 13.5071 19.4084 13.4529 19.4084 13.4334C19.4084 13.4161 19.4084 13.3684 19.3769 13.3641C19.3432 13.3597 19.3432 13.3164 19.3432 13.3164C19.2667 13.3814 19.3094 13.4941 19.3184 13.5612C19.3252 13.6284 19.3004 13.7519 19.3004 13.7519C19.3747 13.7822 19.3162 13.8711 19.2937 13.8992C19.2689 13.9274 19.2217 13.9317 19.2014 13.9577C19.1992 13.9599 19.1969 13.9642 19.1924 13.9707C19.1969 13.9512 19.1969 13.9296 19.1924 13.9014C19.1992 13.9057 19.2104 13.9122 19.2194 13.9122C19.2352 13.9122 19.2757 13.8927 19.3004 13.8559C19.3252 13.8212 19.3454 13.7822 19.2959 13.7584C19.2509 13.7367 19.2194 13.7562 19.2014 13.7887C19.1902 13.8082 19.1812 13.8256 19.1767 13.8429C19.1654 13.8169 19.1519 13.7844 19.1317 13.7497C19.1317 13.7497 19.1182 13.7779 19.0844 13.8061C19.0529 13.8342 19.0034 13.8667 19.0034 13.8667L18.9472 13.9166C18.9472 13.9166 18.7469 14.2697 18.7222 14.3239C18.7154 14.3347 18.5692 14.4171 18.5917 14.4171C18.5804 14.4171 18.5669 14.4192 18.5782 14.4127C18.5939 14.4062 18.6524 14.3629 18.6524 14.3629L18.6907 14.3131C18.7019 14.3109 18.8909 14.0726 18.8707 14.0076C18.8999 13.9599 18.9337 13.8754 18.9202 13.8624C18.9134 13.8559 18.7717 13.9036 18.7402 13.9317C18.7042 13.9621 18.6794 14.0227 18.6682 14.0596C18.6569 14.0942 18.6029 14.1246 18.6029 14.1246C18.5579 14.1549 18.5264 14.2524 18.5129 14.3304C18.4994 14.4084 18.2992 14.4517 18.2992 14.4517C18.2992 14.4517 18.2857 14.4561 18.2767 14.4647C18.2407 14.4452 18.1979 14.4279 18.1709 14.4192C18.1327 14.4062 18.0809 14.4041 18.0607 14.4062C18.0157 14.4084 17.9414 14.4279 17.9414 14.4279L18.0089 14.4539C18.0089 14.4539 18.0719 14.4842 18.1034 14.4994C18.1484 14.5232 18.1507 14.5492 18.1507 14.5492L18.4004 14.6554L18.4499 14.6901C18.4499 14.6901 18.4499 14.6901 18.4522 14.6879C18.4567 14.6901 18.4612 14.6901 18.4612 14.6901C18.4612 14.6901 18.4747 14.6944 18.4904 14.7009C18.5084 14.7052 18.5287 14.7074 18.5669 14.7074C18.6119 14.7074 18.6457 14.6901 18.6569 14.6749C18.6659 14.6619 18.6434 14.6467 18.6232 14.6381C18.6277 14.6381 18.6322 14.6381 18.6367 14.6381C18.6367 14.6381 18.4634 14.5514 18.3847 14.5124C18.4297 14.4994 18.4927 14.4756 18.5062 14.4777C18.5489 14.4864 18.5894 14.4972 18.6322 14.5102C18.6794 14.5297 18.7199 14.5362 18.7514 14.5254C18.7852 14.5146 18.8324 14.5189 18.8684 14.5254C18.9044 14.5319 18.9449 14.5297 18.9674 14.5232C18.9922 14.5146 19.0574 14.4799 19.0574 14.4799C19.0574 14.4799 19.1272 14.4517 19.1654 14.4344C19.2059 14.4149 19.1812 14.4084 19.1812 14.4084C19.1812 14.4084 19.1092 14.3976 19.0664 14.3824C19.0214 14.3672 18.9494 14.3564 18.8864 14.3586C18.8234 14.3586 18.7672 14.3781 18.7154 14.3954C18.6637 14.4149 18.5984 14.4149 18.5984 14.4149C18.5984 14.4149 18.5962 14.4149 18.5939 14.4149C18.5962 14.4149 18.5962 14.4149 18.6007 14.4127C18.6524 14.4019 18.8099 14.3477 18.8549 14.3282C18.9089 14.3044 18.9427 14.2567 18.9832 14.2177C18.9989 14.2026 19.0304 14.1722 19.0619 14.1419C19.0394 14.1722 19.0237 14.1939 19.0237 14.1939L19.2194 14.1397C19.2194 14.1397 19.2374 14.1419 19.2082 14.1224C19.1767 14.1029 19.2172 14.0227 19.2419 14.0054C19.2892 13.9686 19.3544 13.9946 19.3544 13.9946C19.3544 13.9946 19.4444 14.0076 19.5547 13.9664C19.6469 13.9296 19.6874 13.8732 19.7324 13.8299C19.7549 13.8082 19.7999 13.7302 19.8269 13.6847C19.8427 13.6566 19.8719 13.6067 19.8539 13.6132ZM18.5624 14.3694C18.5669 14.3586 18.5782 14.3369 18.5872 14.3217C18.5984 14.3044 18.6502 14.1939 18.6682 14.1614C18.6862 14.1311 18.7289 14.0487 18.7559 14.0141C18.7672 13.9967 18.8189 13.9426 18.8324 13.9664C18.7424 14.0401 18.6704 14.1722 18.6344 14.2589C18.6299 14.2676 18.5984 14.3174 18.5894 14.3304C18.5782 14.3434 18.5827 14.3672 18.5647 14.3694C18.5647 14.3694 18.5647 14.3694 18.5624 14.3694ZM19.0012 14.4409C18.9832 14.4561 18.9089 14.4626 18.8909 14.4669C18.8707 14.4691 18.7919 14.4691 18.7604 14.4712C18.7424 14.4712 18.7087 14.4756 18.6907 14.4756C18.5309 14.4582 18.9472 14.4626 19.0012 14.4409ZM19.1137 13.8971C19.1002 13.9209 19.0822 13.9274 19.0754 13.9404C19.0597 13.9577 19.0169 13.9924 19.0057 14.0141C18.9944 14.0336 18.9809 14.0596 18.9427 14.0812C18.9044 14.1029 18.9179 14.1376 18.9134 14.1506C18.9112 14.1679 18.8527 14.2069 18.8257 14.2567C18.8212 14.3087 18.8167 14.2871 18.7852 14.3044C18.8437 14.2199 18.8752 14.1636 18.9157 14.0899C19.0012 14.0162 19.0439 13.9101 19.1159 13.8516C19.1272 13.8602 19.1272 13.8732 19.1137 13.8971ZM19.5164 13.6522C19.5299 13.6197 19.5614 13.5482 19.5974 13.5179C19.6177 13.5006 19.6559 13.4919 19.6739 13.4832C19.6829 13.4811 19.7414 13.4767 19.6672 13.4984C19.6357 13.5071 19.5952 13.5244 19.5772 13.5547C19.5502 13.6241 19.5277 13.6847 19.4804 13.7302C19.4444 13.7649 19.4219 13.8126 19.4219 13.8126L19.3837 13.8234C19.4534 13.7822 19.4827 13.7064 19.5164 13.6522ZM19.5412 13.9296C19.5052 13.9447 19.4579 13.9512 19.3972 13.9599C19.3364 13.9707 19.2982 13.9686 19.3027 13.9556C19.3094 13.9361 19.3162 13.9339 19.3319 13.9144C19.3567 13.8862 19.4084 13.8732 19.4557 13.8559C19.3882 13.8906 19.3409 13.9296 19.3387 13.9296C19.3387 13.9296 19.3117 13.9339 19.3162 13.9469C19.3207 13.9534 19.3432 13.9491 19.3432 13.9491C19.3432 13.9491 19.5209 13.9252 19.5929 13.8819C19.6424 13.8516 19.6672 13.8321 19.7122 13.7649C19.7324 13.7367 19.7549 13.6804 19.7572 13.7172C19.7594 13.8104 19.6087 13.9014 19.5412 13.9296Z" fill="#009B3A"/>
<path d="M19.4166 14.2009C19.4166 14.2009 19.3083 14.1923 19.297 14.1923C19.2858 14.1923 19.2271 14.1836 19.1391 14.1836C19.0534 14.1836 19.0196 14.2118 18.997 14.2356C18.9745 14.2616 18.9045 14.3223 18.9045 14.3223L18.9271 14.3201C18.8842 14.3309 18.8481 14.3396 18.8481 14.3396C18.8481 14.3396 19.0557 14.3504 19.0782 14.3591C19.1008 14.3678 19.1346 14.3634 19.164 14.3504C19.2452 14.3158 19.2813 14.3071 19.3151 14.3006C19.3489 14.2941 19.3873 14.2724 19.3873 14.2724C19.3873 14.2724 19.4076 14.2594 19.4279 14.2248C19.4482 14.1923 19.4166 14.2009 19.4166 14.2009ZM19.3489 14.2486C19.3061 14.2616 19.261 14.2703 19.2181 14.2746C19.1504 14.2768 19.094 14.2898 19.067 14.2898C19.0534 14.2898 18.9993 14.3028 18.9474 14.3158C19.0331 14.2551 19.0985 14.2768 19.1256 14.2746C19.1549 14.2746 19.1888 14.2768 19.2767 14.2464C19.3647 14.2161 19.358 14.2443 19.3489 14.2486Z" fill="#009B3A"/>
<path d="M19.3454 14.0818C19.3724 14.0514 19.3499 14.0038 19.3071 14.0059C19.2869 14.0081 19.2666 14.0016 19.2261 14.0536C19.1879 14.1056 19.2441 14.1251 19.2666 14.1273C19.2756 14.1273 19.2891 14.1229 19.3026 14.1186C19.3161 14.1121 19.3184 14.1099 19.3454 14.0818Z" fill="#009B3A"/>
<path d="M19.3373 13.2602C19.3102 13.232 19.2763 13.1865 19.2763 13.1865C19.222 13.2147 19.2039 13.271 19.2039 13.2949C19.2039 13.3187 19.213 13.3685 19.2039 13.4227C19.2016 13.4379 19.1994 13.4574 19.1722 13.5224C19.1451 13.5874 19.1768 13.6459 19.1813 13.6654C19.1858 13.6849 19.2084 13.7499 19.2084 13.7499C19.2084 13.7499 19.2311 13.7369 19.2378 13.7347C19.2469 13.7325 19.274 13.7347 19.274 13.7347C19.274 13.7347 19.3057 13.6784 19.3079 13.648C19.3079 13.6242 19.3057 13.5852 19.2944 13.5267C19.2785 13.44 19.2785 13.414 19.2899 13.3664C19.3012 13.3144 19.3487 13.2819 19.3487 13.2819C19.3487 13.2819 19.3532 13.2754 19.3373 13.2602Z" fill="#009B3A"/>
<path d="M19.3794 13.2538C19.3202 13.3643 19.4295 13.3686 19.4295 13.3686C19.4295 13.3686 19.4615 13.3621 19.4751 13.3361C19.4956 13.3036 19.4888 13.2711 19.4888 13.2711C19.4432 13.1823 19.3794 13.2538 19.3794 13.2538Z" fill="#009B3A"/>
<path d="M19.6775 13.3834C19.7162 13.3314 19.6798 13.2967 19.6615 13.2924C19.6433 13.2859 19.6023 13.2816 19.5681 13.3531C19.5362 13.4181 19.6296 13.4224 19.6501 13.4116C19.6593 13.4051 19.6775 13.3834 19.6775 13.3834Z" fill="#009B3A"/>
<path d="M19.9048 12.5234C19.9048 12.5234 19.88 12.5624 19.871 12.5711C19.8619 12.5819 19.7243 12.6946 19.7153 12.7011C19.7085 12.7054 19.6363 12.7271 19.5709 12.8983C19.5055 13.0694 19.5348 13.2276 19.5348 13.2276L19.5484 13.2254C19.5055 13.2601 19.4852 13.3338 19.4852 13.3338C19.4852 13.3338 19.4739 13.3641 19.4356 13.3858C19.395 13.4096 19.4198 13.4443 19.4198 13.5049C19.4198 13.5656 19.3769 13.6718 19.3769 13.6718L19.3589 13.7086C19.3589 13.7086 19.3611 13.7368 19.386 13.6869C19.4288 13.6046 19.4784 13.6241 19.4965 13.5353C19.5078 13.4681 19.6228 13.4464 19.6228 13.4464L19.589 13.4399C19.4694 13.3858 19.5957 13.2536 19.616 13.2298C19.6206 13.2233 19.6273 13.2189 19.6318 13.2168L19.6409 13.2146C19.6973 13.1648 19.7694 13.0629 19.8191 12.9958C19.8687 12.9286 19.889 12.8246 19.898 12.7791C19.907 12.7336 19.9048 12.5234 19.9048 12.5234ZM19.5732 13.2124C19.5709 13.2124 19.5709 13.2124 19.5687 13.2146L19.5709 13.2103C19.5709 13.2103 19.5822 13.1539 19.589 13.1106C19.598 13.0673 19.6476 13.0088 19.6792 12.9654C19.7108 12.9221 19.7356 12.8614 19.7356 12.8614C19.7717 12.7899 19.7897 12.7249 19.8281 12.6751C19.8303 12.7314 19.6093 13.0759 19.5732 13.2124Z" fill="#009B3A"/>
<path d="M19.5049 13.221C19.5049 13.221 19.5026 13.1885 19.4913 13.1495C19.4822 13.1105 19.4845 13.0585 19.4641 13.026C19.4414 12.9935 19.3915 12.9567 19.3711 12.9047C19.353 12.8527 19.3689 12.7552 19.3689 12.7444C19.3711 12.7335 19.3779 12.74 19.3666 12.7292C19.3575 12.7162 19.2714 12.6729 19.2714 12.6729C19.2714 12.6729 19.2759 12.7032 19.2736 12.7617C19.2736 12.7747 19.2691 12.792 19.2668 12.8159C19.2646 12.8397 19.2782 12.8679 19.3145 12.935C19.3553 13.0109 19.3734 13.0564 19.3961 13.0954C19.421 13.1387 19.489 13.2579 19.5049 13.2514C19.514 13.2449 19.5049 13.221 19.5049 13.221Z" fill="#009B3A"/>
<path d="M19.6499 12.108C19.6499 12.0885 19.6408 12.0538 19.6499 12.0517C19.6568 12.0495 19.6499 12.0603 19.6545 12.0907C19.6568 12.1015 19.6499 12.1297 19.6476 12.1687C19.6454 12.199 19.6454 12.225 19.6317 12.264C19.6203 12.3008 19.6294 12.3398 19.6226 12.3507C19.6135 12.3637 19.593 12.407 19.593 12.407C19.593 12.407 19.5793 12.4417 19.5816 12.472C19.5838 12.5045 19.5838 12.5392 19.5838 12.5392C19.5838 12.5392 19.5998 12.511 19.634 12.5067C19.634 12.5067 19.6408 12.4525 19.6408 12.4352C19.6408 12.4178 19.6636 12.3073 19.675 12.2727C19.6909 12.2228 19.7023 12.1362 19.6773 12.0365C19.6727 12.0105 19.6682 11.9238 19.6682 11.9238C19.6682 11.9238 19.634 11.9498 19.6135 12.0473C19.6089 12.0777 19.6203 12.1557 19.6157 12.2402C19.6157 12.2553 19.6089 12.2878 19.6021 12.3225C19.6135 12.3008 19.634 12.264 19.6431 12.2077C19.6476 12.1817 19.6499 12.1383 19.6499 12.108Z" fill="#009B3A"/>
<path d="M19.5096 12.7057C19.4939 12.6537 19.4691 12.5952 19.4331 12.5627C19.3994 12.5302 19.3701 12.5215 19.3701 12.5215C19.3701 12.5215 19.3791 12.5843 19.3791 12.6212C19.3791 12.6602 19.3836 12.723 19.3814 12.7577C19.3791 12.7902 19.3611 12.8465 19.3859 12.9028C19.4129 12.957 19.4421 12.9852 19.4624 13.0177C19.4804 13.0502 19.5141 13.2257 19.5141 13.2257C19.5141 13.2257 19.5029 12.9895 19.5119 12.9245C19.5231 12.8595 19.5254 12.7577 19.5096 12.7057Z" fill="#009B3A"/>
<path d="M19.6043 12.3242C19.6019 12.3264 19.5996 12.3308 19.5996 12.333L19.5615 12.4884C19.5663 12.4818 19.5877 12.3943 19.6043 12.3242Z" fill="#009B3A"/>
<path d="M19.3798 12.1013C19.3844 12.1295 19.3934 12.1468 19.4272 12.2097C19.4385 12.2313 19.461 12.2833 19.4656 12.3007C19.4701 12.318 19.4746 12.3375 19.4746 12.344C19.4746 12.3505 19.4791 12.3895 19.4791 12.3895V12.4068C19.4791 12.4068 19.3844 12.3527 19.3437 12.3245C19.3009 12.2963 19.2535 12.2573 19.2242 12.2335C19.1881 12.2053 19.1069 12.1143 19.1069 12.0407L19.0708 12.0082C19.0708 12.0082 19.0415 12.1728 19.1768 12.279C19.2152 12.3093 19.258 12.344 19.3483 12.383C19.4385 12.422 19.4272 12.4588 19.4656 12.5347C19.4994 12.6105 19.5242 12.656 19.5287 12.6777C19.531 12.7015 19.5174 13.0287 19.5174 13.0287L19.5197 13.059C19.5197 13.059 19.6032 12.7557 19.6415 12.721C19.6415 12.721 19.5626 12.7102 19.5693 12.591L19.5558 12.513C19.5558 12.513 19.54 12.4177 19.5693 12.3592C19.5693 12.3592 19.6054 12.253 19.5919 12.1598C19.5851 12.1035 19.5829 12.0883 19.5761 12.0342C19.5648 11.9518 19.531 11.8327 19.5265 11.8197C19.5152 11.7785 19.5107 11.772 19.4971 11.7373C19.4926 11.7265 19.4859 11.6875 19.4723 11.6875C19.4656 11.6875 19.4543 11.7373 19.4543 11.7373C19.4543 11.7373 19.4385 11.7915 19.434 11.8067C19.4227 11.85 19.3979 11.8868 19.3866 11.9843C19.3844 12.0017 19.3821 12.0493 19.3798 12.0558C19.3798 12.0623 19.3776 12.0905 19.3798 12.1013ZM19.4813 11.876C19.4791 11.8912 19.4791 11.9193 19.4791 11.9258C19.4791 11.9323 19.4859 11.9713 19.4926 11.993C19.4994 12.0147 19.5107 12.0212 19.5062 12.0645C19.5017 12.0905 19.4723 12.123 19.4813 12.1685C19.4859 12.1923 19.5039 12.2183 19.5129 12.2378C19.5197 12.253 19.5174 12.2877 19.5174 12.3158C19.5174 12.344 19.5355 12.3635 19.5355 12.3635C19.5355 12.3635 19.5174 12.4003 19.5107 12.357C19.5039 12.305 19.4994 12.2812 19.4904 12.2573C19.4723 12.2205 19.4588 12.1512 19.4836 12.0992C19.4881 12.0883 19.4926 12.0688 19.4926 12.0472C19.4926 12.0233 19.4768 11.9843 19.4746 11.9605C19.4723 11.941 19.4746 11.8998 19.4746 11.8847L19.4656 11.8435C19.4836 11.8435 19.4836 11.8608 19.4813 11.876Z" fill="#009B3A"/>
<path d="M19.163 11.8108L19.154 11.7804L19.0955 11.7848C19.0955 11.7848 19.1113 11.8368 19.0708 11.8541C19.0325 11.8714 19.019 11.8714 19.019 11.8714L19.0415 11.9278L19.055 11.9429C19.055 11.9429 19.1068 12.0144 19.136 12.0231C19.1473 12.0274 19.1945 12.0361 19.2418 12.0534C19.3003 12.0773 19.397 12.1596 19.397 12.1596C19.397 12.1596 19.307 12.0643 19.2373 11.9624C19.2913 12.0296 19.3565 12.0794 19.3565 12.0794C19.4015 11.9819 19.2643 11.8909 19.226 11.8216C19.2395 11.8108 19.2575 11.8389 19.2733 11.8584C19.2958 11.8866 19.3588 11.9711 19.3588 11.9711L19.379 11.8823L19.2148 11.7393C19.2125 11.7609 19.163 11.7783 19.163 11.7783C19.1608 11.7869 19.1608 11.7999 19.163 11.8108Z" fill="#009B3A"/>
<path d="M19.1205 12.3502C19.1791 12.4044 19.2513 12.4239 19.2964 12.4369C19.3618 12.4564 19.4498 12.517 19.4498 12.517C19.4498 12.517 19.4363 12.4867 19.4227 12.4715C19.3934 12.439 19.3573 12.413 19.249 12.361C19.1408 12.3112 19.1137 12.2267 19.0573 12.192C19.0325 12.1747 18.9851 12.166 18.9851 12.166C18.9851 12.166 19.0325 12.2288 19.0438 12.2505C19.0573 12.2787 19.0618 12.2982 19.1205 12.3502Z" fill="#009B3A"/>
<path d="M19.1114 12.0235C19.1114 12.0235 19.1069 12.0192 19.1114 12.0279C19.1136 12.0365 19.1429 12.1275 19.1991 12.1969C19.2869 12.3052 19.4579 12.381 19.4579 12.381C19.4444 12.316 19.4151 12.238 19.3949 12.2034C19.3161 12.082 19.1114 12.0235 19.1114 12.0235Z" fill="#009B3A"/>
<path d="M19.0814 11.774C19.0837 11.7762 19.0859 11.7805 19.0859 11.7827C19.0859 11.7827 19.0814 11.7004 19.0769 11.657C19.0611 11.5292 19.0273 11.4902 19.016 11.4707C18.9957 11.436 18.946 11.4035 18.91 11.3905C18.8739 11.3775 18.8333 11.3602 18.7859 11.3472C18.7408 11.3342 18.7769 11.3753 18.7927 11.41C18.8152 11.4512 18.831 11.488 18.8355 11.514C18.84 11.54 18.8784 11.5769 18.8829 11.5834C18.8897 11.5899 18.9393 11.6375 18.9551 11.6592C18.9641 11.6722 18.9867 11.7112 19.0047 11.7415C18.9754 11.7437 18.9641 11.7697 18.9686 11.8174C18.9528 11.8152 18.9325 11.813 18.9077 11.8109C18.9257 11.8109 18.928 11.8109 18.928 11.8109C18.928 11.8109 18.9776 11.787 18.9528 11.7675C18.8107 11.7069 18.6776 11.6354 18.6099 11.5552C18.6099 11.5552 18.6212 11.5444 18.6708 11.592C18.6979 11.618 18.7182 11.6332 18.7363 11.6462C18.7881 11.6809 18.8107 11.6917 18.8603 11.7177C18.8874 11.7329 18.9551 11.748 18.9551 11.748C18.9551 11.748 18.9641 11.7285 18.9731 11.7264C18.9821 11.722 18.9686 11.6917 18.91 11.644C18.8581 11.605 18.822 11.5552 18.822 11.5552C18.822 11.5552 18.7521 11.54 18.6776 11.527C18.619 11.5184 18.5129 11.4382 18.5152 11.4599C18.5174 11.4837 18.531 11.553 18.5603 11.5964C18.5896 11.6397 18.6167 11.6852 18.6618 11.7242C18.7069 11.761 18.7295 11.787 18.8242 11.8022C18.8333 11.8044 18.8378 11.8044 18.8445 11.8044C18.7724 11.7957 18.7002 11.7892 18.6844 11.7783C18.6347 11.7502 18.5919 11.7004 18.5919 11.7004L18.4701 11.696C18.4701 11.696 18.4092 11.6917 18.4723 11.7437C18.4904 11.7589 18.522 11.7827 18.5603 11.8065C18.5941 11.826 18.6979 11.8824 18.7746 11.8975C18.7927 11.8997 18.8874 11.9127 18.8874 11.9127C18.8919 11.8715 18.937 11.8694 18.937 11.8694L18.822 11.8564C18.8333 11.8564 18.8445 11.8585 18.8558 11.8564C18.9167 11.852 18.9551 11.8477 18.9799 11.8412C19.0047 11.8694 19.0656 11.852 19.0656 11.852L19.0814 11.8455C19.0814 11.8455 19.0927 11.8368 19.0859 11.7935C19.0859 11.7848 19.0837 11.7784 19.0814 11.774ZM18.8017 11.8542C18.6911 11.8455 18.6077 11.8022 18.5423 11.7307C18.619 11.774 18.7227 11.8412 18.8152 11.8542H18.8017ZM19.0385 11.7437C19.034 11.722 19.0227 11.6895 19.0137 11.6657C19.0408 11.7025 19.0611 11.7372 19.0769 11.7653C19.0679 11.7523 19.0543 11.7459 19.0385 11.7437Z" fill="#009B3A"/>
<path d="M18.9685 11.8714C18.9457 11.8671 18.9069 11.8649 18.891 11.9039C18.8727 11.9429 18.9366 11.9667 18.9366 11.9667C18.9366 11.9667 18.9479 11.9711 18.9639 11.9711C18.9912 11.9689 19.0095 11.9646 19.0163 11.9364C19.0209 11.9039 19.0072 11.8801 18.9685 11.8714Z" fill="#009B3A"/>
<path d="M19.1483 11.7785C19.1483 11.7785 19.1529 11.7763 19.1621 11.7742C19.1804 11.7677 19.1987 11.7265 19.1987 11.7265C19.2079 11.6702 19.1667 11.6572 19.1667 11.6572C19.0934 11.6442 19.0911 11.7027 19.0911 11.7027C19.0727 11.7807 19.1392 11.7807 19.1483 11.7785Z" fill="#009B3A"/>
<path d="M18.1236 14.5156C18.1236 14.5156 18.0156 14.4679 17.9143 14.4202C17.7793 14.3574 17.6196 14.2707 17.5071 14.1082C17.3653 13.9089 17.2438 13.8027 17.2146 13.7811C17.1853 13.7594 17.1808 13.7507 17.1696 13.7659C17.1583 13.7811 17.1651 13.7919 17.1741 13.8049C17.2033 13.8504 17.2731 13.9349 17.3001 13.9804C17.3428 14.0627 17.4351 14.1516 17.4328 14.2036C17.4328 14.2101 17.4058 14.1992 17.4058 14.1992C17.4058 14.1992 17.1943 14.1299 17.1088 13.8807C17.0458 13.7009 17.0728 13.6489 17.0571 13.5601C17.0323 13.3997 17.0278 13.3867 16.9446 13.2091C16.9446 13.2026 16.8951 13.1289 16.8883 13.1462C16.8816 13.1657 16.8973 13.2459 16.8973 13.2459L16.9063 13.3391C16.9063 13.3391 16.9041 13.4214 16.9018 13.4842V13.4821C16.9018 13.4821 16.8838 13.2286 16.8546 13.1766C16.8478 13.1657 16.8501 13.1397 16.8298 13.1397C16.7938 13.1376 16.7938 13.2199 16.7893 13.2936C16.7803 13.3477 16.7803 13.3997 16.7871 13.4496C16.7601 13.2979 16.7623 13.1592 16.7916 13.0942C16.8276 13.0206 16.8973 12.8386 16.8681 12.6804C16.8636 12.6631 16.8591 12.6154 16.8478 12.6284C16.8433 12.6327 16.8231 12.7129 16.8118 12.7411C16.7938 12.7801 16.7668 12.8169 16.7578 12.8429C16.7421 12.8884 16.6633 12.9577 16.6791 13.0834C16.6971 13.2286 16.7061 13.2524 16.7241 13.3044C16.7308 13.3239 16.7466 13.3716 16.7353 13.3759C16.7286 13.3824 16.6948 13.3196 16.6948 13.3196C16.6948 13.3196 16.5508 13.0466 16.6408 12.8256C16.7308 12.6046 16.9558 12.3966 16.9558 12.3966C16.9558 12.3966 17.1381 12.2514 17.1763 12.2167C17.1898 12.2037 17.1876 12.1929 17.1831 12.1951C17.1358 12.2059 16.7848 12.2774 16.6611 12.6804C16.6611 12.6804 16.6543 12.6977 16.6453 12.6934C16.6341 12.6891 16.6453 12.6696 16.6453 12.6696C16.6453 12.6696 16.7218 12.3836 16.9401 12.2536C17.1763 12.1106 17.1493 12.1322 17.2281 12.0867C17.2776 12.0564 17.3226 12.0174 17.3766 11.9307C17.3833 11.9199 17.4036 11.8701 17.4013 11.8614C17.3991 11.8506 17.3878 11.8636 17.3833 11.8787C17.3833 11.8787 17.3158 11.9784 17.2168 12.0131C17.1156 12.0456 17.0323 11.9979 16.9311 12.1041C16.8298 12.2124 16.7488 12.3641 16.7488 12.3641C16.7488 12.3641 16.7241 12.4031 16.7173 12.4009C16.7061 12.3987 16.7218 12.3597 16.7218 12.3597C16.7218 12.3597 16.8568 12.0824 16.9671 12.0261C17.0751 11.9697 17.1718 11.9156 17.2348 11.8701C17.3091 11.8137 17.4396 11.6751 17.4868 11.6252C17.4958 11.6144 17.5656 11.5472 17.5813 11.5256C17.5903 11.5126 17.6128 11.4952 17.6083 11.4931C17.5993 11.4866 17.5341 11.5169 17.5341 11.5169C17.5341 11.5169 17.1741 11.6122 16.9513 11.9372C16.9401 11.9524 16.9153 11.9827 16.9041 11.9957C16.8996 11.9979 16.8973 12.0001 16.8951 12.0044C16.9333 11.9502 16.9918 11.8787 16.9918 11.8787L17.0166 11.7682C17.0166 11.7682 17.0593 11.6036 17.1448 11.4866C17.1538 11.4757 17.2056 11.4259 17.2146 11.4151C17.2348 11.3977 17.1831 11.4324 17.1921 11.4237C17.1921 11.4237 16.8568 11.6556 16.8568 11.9459C16.8568 11.9979 16.8231 12.0456 16.7758 12.1106C16.7218 12.1886 16.7038 12.2341 16.6813 12.3467C16.6701 12.3944 16.6611 12.4421 16.6498 12.4876C16.6498 12.4876 16.6521 12.5287 16.6386 12.5266C16.6251 12.5244 16.6296 12.4897 16.6296 12.4897C16.6296 12.4897 16.6633 12.2731 16.6881 12.2059C16.7106 12.1409 16.7263 12.0976 16.7263 12.0976C16.7263 12.0976 16.7128 11.9329 16.7511 11.8441C16.7826 11.7661 16.8636 11.6621 16.8771 11.6361C16.8816 11.6252 16.9198 11.5516 16.9311 11.4692C16.9333 11.4584 16.9243 11.4671 16.9086 11.4996C16.8726 11.5797 16.8411 11.5992 16.7803 11.6751C16.7803 11.6751 16.6251 11.7834 16.5688 12.1041C16.5688 12.1041 16.5666 12.2232 16.5486 12.4117C16.5328 12.5504 16.5441 12.6804 16.5621 12.7584C16.5643 12.7671 16.5666 12.7757 16.5688 12.7801C16.5688 12.7779 16.5688 12.7779 16.5666 12.7757C16.5441 12.7324 16.5283 12.6674 16.5283 12.5742C16.5283 12.4074 16.5441 12.2709 16.5441 12.2709C16.5441 12.2709 16.5553 12.0001 16.4383 11.8766C16.4316 11.8722 16.4586 11.9351 16.4698 11.9957C16.4833 12.0716 16.4586 12.1756 16.4496 12.2167C16.4428 12.2579 16.3663 12.4377 16.3933 12.6046C16.3933 12.6046 16.4496 12.8494 16.5261 12.9946C16.4766 12.9122 16.4068 12.7497 16.4001 12.7346C16.3933 12.7172 16.3258 12.5807 16.2606 12.5244C16.2268 12.4941 16.1368 12.4421 16.1368 12.4421C16.1368 12.4421 16.0873 12.4052 16.1256 12.4529C16.1548 12.4919 16.1953 12.5591 16.2133 12.5894C16.2538 12.6501 16.2876 12.7151 16.3191 12.7801C16.3506 12.8451 16.4203 13.0336 16.4203 13.0336L16.4653 13.1549C16.4653 13.1549 16.5418 13.1961 16.5823 13.2394C16.6161 13.2762 16.6858 13.3586 16.7443 13.5037C16.7713 13.5687 16.8231 13.6272 16.8231 13.6272C16.8231 13.6272 16.8141 13.6511 16.7668 13.5731C16.7218 13.4951 16.6746 13.3456 16.5643 13.2307C16.4788 13.1441 16.2538 13.0552 16.2538 13.0552C16.2538 13.0552 16.4001 13.3001 16.4361 13.3434C16.4968 13.4127 16.5868 13.5124 16.6093 13.5384C16.6341 13.5644 16.7691 13.7269 16.7893 13.7551C16.8208 13.7962 16.8433 13.8136 16.8591 13.8309C16.8951 13.8634 17.0008 13.9327 17.0098 13.9436C17.0098 13.9457 17.0098 13.9457 17.0098 13.9457C17.0098 13.9436 17.0076 13.9414 17.0031 13.9392C16.9581 13.9111 16.8996 13.8677 16.8411 13.8309C16.7826 13.7941 16.5576 13.7009 16.4046 13.4994C16.3708 13.4387 16.3528 13.4171 16.3393 13.4214C16.3213 13.4322 16.4428 13.8179 16.6903 13.9392C16.6903 13.9392 16.9648 14.0562 17.0256 14.0931C17.0593 14.1126 17.1268 14.1407 17.1583 14.1646C17.1763 14.1797 17.1426 14.1776 17.1403 14.1776C16.9941 14.1667 16.7848 14.1472 16.6566 14.0757C16.6566 14.0757 16.6003 14.0389 16.6476 14.0909C16.6836 14.1321 16.7511 14.2317 16.8838 14.2881C17.0143 14.3444 17.2056 14.3769 17.2776 14.3791C17.3473 14.3834 17.5926 14.3834 17.6398 14.3986C17.6848 14.4137 17.7636 14.4614 17.8086 14.4766C17.8198 14.4787 17.8356 14.4852 17.8558 14.4917C17.7838 14.5156 17.5138 14.6131 17.5138 14.6131L17.4283 14.6456C17.4621 14.6391 17.4958 14.6369 17.5228 14.6412C17.4756 14.6391 17.4306 14.6412 17.4148 14.6564C17.4126 14.6586 17.4103 14.6672 17.4171 14.6694C17.4351 14.6781 17.4306 14.6824 17.5093 14.6911C17.5723 14.6976 17.6173 14.6889 17.6398 14.6781L17.9661 14.5329C17.9683 14.5329 17.9706 14.5351 17.9706 14.5351C17.9706 14.5351 18.0088 14.5546 18.0291 14.5611C18.0516 14.5697 18.1438 14.5697 18.1506 14.5524C18.1551 14.5372 18.1236 14.5156 18.1236 14.5156ZM16.8861 12.0196C16.8726 12.0391 16.8681 12.0586 16.8681 12.0586C16.8636 12.0564 16.8726 12.0391 16.8861 12.0196ZM16.5801 12.8126C16.5733 12.8147 16.5801 12.8126 16.5711 12.7887C16.5801 12.8061 16.5868 12.8082 16.5801 12.8126ZM17.0458 13.9154C17.0413 13.9111 17.0323 13.9024 17.0211 13.8916L17.0031 13.8352C17.0211 13.8591 17.0458 13.8851 17.0728 13.9111C17.0728 13.9111 17.0773 13.9479 17.0458 13.9154Z" fill="#009B3A"/>
<path d="M19.7576 12.5974C19.7576 12.5974 19.7554 12.5519 19.7554 12.5302C19.7554 12.5085 19.7441 12.4219 19.7441 12.4219L19.7193 12.4392C19.6899 12.4609 19.6742 12.502 19.6742 12.502C19.6742 12.502 19.6922 12.4999 19.7193 12.5085C19.7305 12.5129 19.7418 12.5302 19.7463 12.5497C19.7351 12.528 19.717 12.5085 19.6787 12.5064C19.5952 12.5042 19.5952 12.593 19.5952 12.593C19.5952 12.593 19.5975 12.567 19.5952 12.5974C19.5907 12.6255 19.6065 12.697 19.6696 12.7035C19.7351 12.7079 19.7554 12.6342 19.7576 12.5974C19.7576 12.5974 19.7554 12.593 19.7554 12.5887C19.7576 12.593 19.7576 12.5974 19.7576 12.5974Z" fill="#009B3A"/>
</svg>
