<svg width="36" height="26" viewBox="0 0 36 26" fill="none" xmlns="http://www.w3.org/2000/svg">
<path d="M0 0V26L22.5 13L0 0Z" fill="#1EB53A"/>
<path d="M36 0H0L18 13L36 0Z" fill="#CE1126"/>
<path d="M0 26H36L18 13L0 26Z" fill="#CE1126"/>
<path d="M18 13L36 26V0L18 13Z" fill="#1EB53A"/>
<path d="M23.8433 15.1992C24.0233 14.5037 24.12 13.7648 24.12 13C24.12 12.2352 24.0233 11.4963 23.8433 10.8008L36 2.0215V0H33.201L22.3582 7.83033C21.249 6.474 19.7055 5.63333 18 5.63333C16.2945 5.63333 14.751 6.474 13.6418 7.83033L2.799 0H0V2.0215L12.1567 10.8008C11.9767 11.4963 11.88 12.2352 11.88 13C11.88 13.7648 11.9767 14.5037 12.1567 15.1992L0 23.9785V26H2.799L13.6418 18.1697C14.751 19.526 16.2945 20.3667 18 20.3667C19.7055 20.3667 21.249 19.526 22.3582 18.1697L33.201 26H36V23.9785L23.8433 15.1992Z" fill="white"/>
<path d="M17.9998 20.3538C22.2173 20.3538 25.6363 17.0615 25.6363 13.0002C25.6363 8.93883 22.2173 5.64648 17.9998 5.64648C13.7823 5.64648 10.3633 8.93883 10.3633 13.0002C10.3633 17.0615 13.7823 20.3538 17.9998 20.3538Z" fill="white"/>
<path d="M18.5399 8.28512L17.9999 7.45312L17.4599 8.28512L16.4406 8.31979L16.9199 9.18646L16.4406 10.0531L17.4599 10.0878L17.9999 10.9198L18.5399 10.0878L19.5591 10.0531L19.0799 9.18646L19.5591 8.31979L18.5399 8.28512Z" fill="#E8102F" stroke="#4CC406" stroke-width="0.112"/>
<path d="M21.6246 14.0049L21.0846 13.1729L20.5446 14.0049L19.5254 14.0395L20.0046 14.9062L19.5254 15.7729L20.5446 15.8075L21.0846 16.6395L21.6246 15.8075L22.6416 15.7729L22.1646 14.9062L22.6416 14.0395L21.6246 14.0049Z" fill="#E8102F" stroke="#4CC406" stroke-width="0.112"/>
<path d="M15.4552 14.1006L14.9152 13.2686L14.3752 14.1006L13.3582 14.1352L13.8352 15.0019L13.3582 15.8686L14.3752 15.9032L14.9152 16.7352L15.4552 15.9032L16.4744 15.8686L15.9952 15.0019L16.4744 14.1352L15.4552 14.1006Z" fill="#E8102F" stroke="#4CC406" stroke-width="0.112"/>
</svg>
