<svg width="36" height="26" viewBox="0 0 36 26" fill="none" xmlns="http://www.w3.org/2000/svg">
<path d="M36 0H0V26H36V0Z" fill="#DE2910"/>
<path d="M6.2999 5.63372L5.6249 3.90039L5.1749 5.63372H3.1499L4.7249 6.93372L4.0499 8.66706L5.6249 7.58372L7.4249 8.66706L6.7499 6.93372L8.3249 5.63372H6.2999Z" fill="#FFDE00"/>
<path d="M13.5 3.0334L12.825 2.60006L13.05 1.7334L12.15 2.3834L11.475 1.7334L11.7 2.60006L11.025 3.25006H11.925L12.375 4.11673L12.6 3.25006L13.5 3.0334Z" fill="#FFDE00"/>
<path d="M15.525 4.76634L14.625 4.98301L13.95 4.33301V5.19967L13.05 5.41634L13.95 5.63301L13.725 6.71634L14.4 5.84967L15.3 6.28301L14.85 5.63301L15.525 4.76634Z" fill="#FFDE00"/>
<path d="M13.9499 8.66634V7.58301L13.4999 8.44967L12.5999 8.23301L13.2749 8.88301L12.8249 9.74967L13.4999 9.31634L14.1749 9.96634V9.09967L14.8499 8.66634H13.9499Z" fill="#FFDE00"/>
<path d="M11.25 10.8335L11.475 9.9668L10.8 10.4001L9.89995 9.9668L10.35 10.8335L9.44995 11.4835L10.575 11.2668L10.8 12.1335L11.025 11.2668H11.925L11.25 10.8335Z" fill="#FFDE00"/>
</svg>
