<svg width="36" height="26" viewBox="0 0 36 26" fill="none" xmlns="http://www.w3.org/2000/svg">
<g opacity="0.7">
<path fill-rule="evenodd" clip-rule="evenodd" d="M17.9266 12.6413C18.0049 12.7341 18.049 12.7812 18.0873 12.8325C18.5306 13.4263 18.9786 14.0169 19.4121 14.6176C19.5286 14.7791 19.6546 14.8121 19.8365 14.7689C20.133 14.6987 20.4321 14.6388 20.7309 14.5786C20.9231 14.54 20.9421 14.5002 20.8295 14.334C20.7854 14.2689 20.7365 14.207 20.6895 14.1438C20.067 13.3075 19.4512 12.4663 18.817 11.6386C18.6678 11.4439 18.6771 11.2988 18.7932 11.0993C19.471 9.93441 20.1377 8.76332 20.8067 7.59352C20.8728 7.47789 20.9294 7.35705 21.0139 7.19316C20.8983 7.20885 20.8357 7.21369 20.7746 7.22621C20.405 7.30235 20.0384 7.39894 19.6653 7.45091C19.4145 7.48583 19.2629 7.5918 19.1432 7.80782C18.7376 8.53984 18.3157 9.26317 17.8983 9.98885C17.7869 10.1825 17.7441 10.1837 17.6097 10.004C17.1858 9.43676 16.7669 8.8659 16.3341 8.30524C16.2842 8.24056 16.1528 8.19063 16.0706 8.20361C15.7439 8.25499 15.4216 8.33356 15.0979 8.40316C14.9143 8.44262 14.8851 8.50707 14.9827 8.65942C15.0145 8.70893 15.0528 8.75437 15.0881 8.80169C15.6992 9.62223 16.3078 10.4447 16.9241 11.2615C17.0295 11.4012 17.0371 11.5103 16.9478 11.6642C16.1906 12.9712 15.4412 14.2827 14.693 15.5947C14.6611 15.6508 14.6631 15.7255 14.6492 15.7915C14.7125 15.7978 14.7787 15.8193 14.8385 15.808C15.1841 15.7432 15.531 15.6815 15.8718 15.5968C16.0732 15.5467 16.2828 15.5324 16.4106 15.2945C16.822 14.5288 17.2658 13.7797 17.6978 13.0247C17.7645 12.9081 17.8354 12.7938 17.9266 12.6413M27.254 9.5594C27.254 8.43899 27.2541 7.31854 27.2538 6.19814C27.2538 6.13303 27.2692 6.0599 27.244 6.00527C27.2223 5.95815 27.1478 5.89644 27.1056 5.90246C26.8441 5.93988 26.5841 5.99037 26.3254 6.04437C25.7165 6.17143 25.1088 6.30392 24.5002 6.43222C24.1177 6.5129 23.7325 6.5827 23.3528 6.67448C23.2739 6.69356 23.1767 6.77635 23.1526 6.8501C23.0945 7.02823 23.0724 7.21797 23.0397 7.40372C22.9541 7.89015 22.8714 8.37705 22.7862 8.86356C22.6977 9.36939 22.606 9.87463 22.5187 10.3806C22.4347 10.8673 22.359 11.3554 22.2708 11.8412C22.2352 12.0374 22.1964 12.2372 22.1235 12.4219C21.9897 12.7605 21.768 13.0449 21.4859 13.2821C21.3929 13.3603 21.3617 13.4439 21.4442 13.5526C21.6266 13.7928 21.8066 14.035 21.9822 14.2801C22.0555 14.3823 22.1225 14.3782 22.2094 14.2999C22.3511 14.1722 22.4989 14.0509 22.6408 13.9234C23.0868 13.5223 23.3854 13.0354 23.5126 12.4534C23.5626 12.2247 23.5982 11.993 23.6394 11.7626C23.7607 11.0836 23.883 10.4049 24.0022 9.72556C24.1113 9.10414 24.2136 8.48158 24.3296 7.86141C24.3405 7.80298 24.4197 7.72665 24.4803 7.7123C24.8348 7.62846 25.1918 7.55353 25.5506 7.48951C25.8821 7.43035 25.8843 7.43805 25.8844 7.76994C25.8847 9.5874 25.8844 11.4048 25.885 13.2222C25.8851 13.4749 25.909 13.495 26.1623 13.4414C26.4345 13.3838 26.7038 13.3122 26.9772 13.261C27.2506 13.2098 27.2534 13.2175 27.2535 12.9403C27.2541 11.8133 27.2538 10.6863 27.254 9.5594M8.45914 13.4625C8.45914 14.5827 8.45914 15.7029 8.45922 16.8231C8.45922 16.8817 8.4583 16.9404 8.46129 16.9989C8.4662 17.0955 8.50693 17.1379 8.61574 17.1143C9.29562 16.9674 9.97602 16.8228 10.6571 16.6813C11.3966 16.5277 12.1374 16.3801 12.8768 16.2258C13.0747 16.1845 13.2724 16.1545 13.3783 15.933C13.5047 15.6685 13.6546 15.4128 13.8164 15.1671C13.9819 14.9158 14.0528 14.6537 14.0307 14.3557C14.0138 14.129 14.0274 13.9001 14.0274 13.6722C14.0273 13.045 14.0273 13.045 13.5867 12.6026C13.3811 12.396 13.3914 12.4012 13.528 12.1386C13.6288 11.945 13.752 11.7404 13.7706 11.5326C13.8083 11.1125 13.7907 10.6866 13.775 10.2638C13.7712 10.1599 13.7126 10.0315 13.635 9.96123C13.3185 9.67423 12.9788 9.41199 12.6604 9.12683C12.5216 9.00256 12.3808 8.97053 12.2063 9.00823C11.6499 9.12848 11.0931 9.24673 10.5359 9.36342C9.94631 9.48692 9.35697 9.61194 8.76576 9.72788C8.48838 9.78232 8.45954 9.80336 8.45942 10.0823C8.45902 11.209 8.45926 12.3357 8.45914 13.4625M27.2538 16.2391C27.2538 15.8873 27.2555 15.5355 27.2532 15.1837C27.2518 14.9712 27.2255 14.9535 27.0222 14.9973C26.5755 15.0935 26.1293 15.192 25.6812 15.2813C25.5374 15.31 25.5029 15.3933 25.5036 15.5181C25.5054 15.8243 25.4977 16.1307 25.5053 16.4367C25.5096 16.6079 25.4534 16.7274 25.3086 16.8335C24.1166 17.7064 22.931 18.5875 21.7416 19.4635C20.5463 20.3438 19.3485 21.2209 18.1525 22.1001C17.8565 22.3177 17.8592 22.3169 17.5623 22.0981C15.8206 20.814 14.0793 19.5294 12.3325 18.2521C12.2427 18.1864 12.0962 18.1424 11.9893 18.161C11.4156 18.2615 10.8457 18.3834 10.2757 18.5032C10.2239 18.5141 10.1502 18.5566 10.1418 18.5958C10.1335 18.6343 10.1858 18.6996 10.2284 18.7319C10.4647 18.9112 10.7067 19.0834 10.9459 19.2592C13.1833 20.9038 15.4221 22.5466 17.6547 24.1977C17.8137 24.3153 17.9121 24.3114 18.0649 24.1983C19.5017 23.1349 20.9441 22.0787 22.3847 21.0203C23.9529 19.8681 25.5203 18.715 27.0902 17.565C27.208 17.4787 27.2606 17.3823 27.2565 17.2359C27.2473 16.9038 27.2537 16.5714 27.2538 16.2391M17.8633 1.33633C14.8187 1.33633 11.7741 1.33719 8.7295 1.33403C8.5583 1.33383 8.45659 1.35663 8.45711 1.56221C8.46205 3.64774 8.46094 5.73327 8.45774 7.81884C8.45751 7.98746 8.52172 8.04213 8.68702 8.00596C9.11445 7.91234 9.54137 7.81532 9.97152 7.73538C10.1719 7.69816 10.2199 7.59852 10.219 7.41069C10.2119 6.01604 10.215 4.6213 10.2154 3.22661C10.2154 2.96859 10.2287 2.95377 10.4789 2.95373C15.4048 2.95318 20.3307 2.95412 25.2567 2.9497C25.456 2.94951 25.5094 3.02428 25.505 3.20397C25.4963 3.56221 25.5047 3.92081 25.5025 4.27925C25.5017 4.39793 25.531 4.4709 25.6746 4.44165C26.136 4.34764 26.5979 4.25539 27.06 4.16451C27.1892 4.1391 27.2552 4.07363 27.2548 3.93766C27.2524 3.13604 27.2527 2.33442 27.2546 1.5328C27.2549 1.38396 27.1941 1.33281 27.0372 1.33301C23.9792 1.33719 20.9213 1.33614 17.8633 1.33633M17.8672 7.82108e-05C21.3704 0 24.8737 0 28.377 0C28.7068 0 28.7081 0.000977635 28.7081 0.327273C28.7081 6.16024 28.7073 11.9932 28.7115 17.8261C28.7117 18.0155 28.6505 18.1339 28.4943 18.2481C26.7583 19.5179 25.0282 20.7954 23.2964 22.0706C21.564 23.3461 19.8298 24.619 18.1016 25.9C17.9227 26.0326 17.7995 26.0342 17.618 25.8996C15.5722 24.3822 13.5207 22.8723 11.4693 21.3623C10.0557 20.3218 8.64157 19.282 7.22313 18.2479C7.0698 18.1361 6.99984 18.0197 7 17.8274C7.00495 11.9944 7.00435 6.16149 7.00475 0.328564C7.00479 0.00363678 7.0075 0.000312843 7.33733 0.000312843C10.8473 0 14.3572 0.000117316 17.8672 7.82108e-05" fill="#545E8F"/>
<path fill-rule="evenodd" clip-rule="evenodd" d="M9.82912 14.5785C9.82908 14.3116 9.83239 14.0447 9.82769 13.7779C9.82529 13.6428 9.86055 13.5717 10.0175 13.5409C10.7128 13.4047 11.4039 13.2474 12.0991 13.1101C12.1793 13.0942 12.2949 13.1324 12.3604 13.1855C12.5739 13.3587 12.6886 13.5748 12.6532 13.8661C12.6163 14.1701 12.6877 14.4763 12.5116 14.775C12.3712 15.0132 12.1878 15.1095 11.9373 15.1595C11.3011 15.2862 10.6658 15.4173 10.0325 15.5567C9.87503 15.5914 9.82577 15.5464 9.82801 15.3986C9.83211 15.1253 9.82916 14.8519 9.82912 14.5785" fill="#545E8F"/>
<path fill-rule="evenodd" clip-rule="evenodd" d="M9.82924 11.5273C9.82896 11.3385 9.83311 11.1495 9.82752 10.9608C9.82381 10.8357 9.87403 10.7704 10.0014 10.7442C10.6502 10.6109 11.2975 10.4708 11.9464 10.338C12.1035 10.3059 12.4195 10.5334 12.4298 10.7013C12.4507 11.0431 12.4978 11.397 12.2489 11.6911C12.1933 11.7569 12.1171 11.8308 12.038 11.8487C11.5021 11.97 10.9628 12.077 10.4248 12.1893C10.2887 12.2177 10.1529 12.2471 10.0177 12.2788C9.88959 12.3089 9.8276 12.2646 9.82896 12.133C9.83103 11.9311 9.82952 11.7292 9.82924 11.5273" fill="#545E8F"/>
</g>
</svg>
