<svg width="24" height="24" viewBox="0 0 24 24" fill="none" xmlns="http://www.w3.org/2000/svg">
<path fill-rule="evenodd" clip-rule="evenodd" d="M23.1614 0.833147C22.6887 0.328578 22.037 0.029587 21.3463 0.000407282C20.9548 -0.00855852 20.5744 0.130786 20.2813 0.39052L13.5309 7.14246L8.8732 12.484L11.5133 15.1248L16.8911 10.4359L23.5814 3.74398C24.2715 3.06129 24.0915 1.77092 23.1614 0.833147ZM9.0008 4.11892C9.0008 2.66875 7.82549 1.49316 6.37567 1.49316C4.92585 1.49316 3.75054 2.66875 3.75054 4.11892C3.75054 4.81531 4.02711 5.48318 4.51942 5.97561C5.01173 6.46803 5.67944 6.74467 6.37567 6.74467C7.82549 6.74467 9.0008 5.56908 9.0008 4.11892ZM2.70047 19.8659L7.86073 13.6616L10.3359 16.1298L4.12554 21.2988C4.21269 21.497 4.27079 21.7067 4.29805 21.9215C4.37471 22.4913 4.18366 23.0646 3.78052 23.4744C3.43052 23.8175 2.95799 24.0066 2.46796 23.9996C1.12365 23.9492 0.046596 22.8686 0.000336269 21.5239C-0.012155 21.0327 0.177434 20.5578 0.524794 20.2104C0.872154 19.863 1.34685 19.6733 1.83793 19.6858C2.13433 19.6899 2.42717 19.7511 2.70047 19.8659Z" fill="#253670"/>
</svg>
