<svg width="24" height="24" viewBox="0 0 24 24" fill="none" xmlns="http://www.w3.org/2000/svg">
<path fill-rule="evenodd" clip-rule="evenodd" d="M13.6733 11.1548H10.2398C9.92751 8.84624 8.67254 6.7689 6.77191 5.41437L3.92358 3.06328C5.99926 1.20468 8.65749 0.121985 11.4446 0C12.7403 3.58688 13.4915 7.34663 13.6733 11.1548ZM21.2548 4.29059C19.4435 6.15066 18.3259 8.5733 18.0881 11.1551H15.4549C15.2713 7.37299 14.5558 3.63536 13.3294 0.0517578C16.4228 0.385507 19.2648 1.90555 21.2548 4.29059ZM23.9997 12.8711C23.8716 14.7851 23.2811 16.6397 22.2786 18.2769C20.9013 16.7799 20.0312 14.8886 19.7917 12.8711H23.9997ZM23.9996 11.1548C23.8715 9.24085 23.2811 7.38619 22.2786 5.74902C20.906 7.24731 20.0418 9.13883 19.8089 11.1548H23.9996ZM6.78948 18.6119C8.67579 17.2482 9.9197 15.1738 10.2316 12.8714L13.7167 12.8457C13.534 16.6538 12.7828 20.4134 11.4879 24.0005C8.63812 23.8787 5.92542 22.7468 3.83788 20.8085L6.78948 18.6119ZM15.3943 12.8714C15.2167 16.6436 14.5099 20.3724 13.2946 23.949C16.3861 23.6092 19.226 22.0903 21.2201 19.7102C19.4099 17.8493 18.2925 15.4271 18.0533 12.8457L15.3943 12.8714ZM5.72224 6.7787L2.74483 4.32465C1.12558 6.26622 0.164611 8.66928 -0.000244141 11.1891H8.49313C8.18802 9.41468 7.196 7.83077 5.73085 6.7787H5.72224ZM-0.000244141 12.871H8.49313H8.50173C8.18396 14.6312 7.1898 16.1982 5.73085 17.2385L2.63296 19.5553C1.09222 17.647 0.173421 15.3147 -0.000244141 12.871Z" fill="#253670"/>
</svg>
