<svg width="24" height="24" viewBox="0 0 24 24" fill="none" xmlns="http://www.w3.org/2000/svg">
<path fill-rule="evenodd" clip-rule="evenodd" d="M11.9995 0C5.3721 0 -0.000488281 5.37258 -0.000488281 12C-0.000488281 18.6274 5.3721 24 11.9995 24C18.6269 24 23.9995 18.6274 23.9995 12C23.9995 5.37258 18.6269 0 11.9995 0ZM14.9052 11.6571C15.4502 11.1785 15.7626 10.4882 15.7624 9.76286C15.7624 8.04857 14.2538 6.9 12.0081 6.9C9.76236 6.9 8.25379 8.04857 8.25379 9.76286C8.25356 10.4882 8.5659 11.1785 9.11093 11.6571C8.2667 12.1384 7.74377 13.0339 7.7395 14.0057C7.7395 15.8571 9.45379 17.1 12.0252 17.1C14.5966 17.1 16.3109 15.8571 16.3109 14.0057C16.2997 13.0268 15.7627 12.1296 14.9052 11.6571ZM11.9995 8.61458C12.3423 8.61458 14.0395 8.66601 14.0395 9.76315C14.0395 10.8603 12.3252 10.9117 11.9995 10.9117C11.6738 10.9117 9.95947 10.8603 9.95947 9.76315C9.95947 8.66601 11.6566 8.61458 11.9995 8.61458ZM9.42822 14.006C9.42822 14.9575 10.7225 15.386 11.9997 15.386V15.4289C13.2768 15.4289 14.5711 14.9575 14.5711 14.006C14.5711 13.0546 13.2854 12.626 11.9997 12.626C10.7139 12.626 9.42822 13.0546 9.42822 14.006ZM5.14258 11.9999C5.14258 15.7869 8.21263 18.857 11.9997 18.857C15.7868 18.857 18.8569 15.7869 18.8569 11.9999C18.8569 8.21276 15.7868 5.14271 11.9997 5.14271C8.21263 5.14271 5.14258 8.21276 5.14258 11.9999Z" fill="#253670"/>
</svg>
