<svg width="24" height="24" viewBox="0 0 24 24" fill="none" xmlns="http://www.w3.org/2000/svg">
<path fill-rule="evenodd" clip-rule="evenodd" d="M15.0427 0.40232C13.0498 -0.134107 10.9497 -0.134107 8.95676 0.40232L11.9997 2.19184L15.0427 0.40232ZM21.3521 8.90441L22.1257 5.47949C23.2371 7.20169 23.8826 9.18081 23.9996 11.2248L21.3521 8.90441ZM1.88228 5.47972C0.760407 7.20701 0.111437 9.19646 -0.000244141 11.2507L2.64733 8.9132L1.88228 5.47972ZM7.35796 10.7285L9.12874 16.1655H14.8709L16.6416 10.7285L11.9998 7.37207L7.35796 10.7285ZM18.4383 10.7631L16.5128 16.6711L17.6045 18.1695L22.5644 17.69C23.2809 16.3804 23.7445 14.9486 23.9311 13.4688L20.2005 10.1895L18.4383 10.7631ZM5.56108 10.7627L7.48659 16.6707L6.40349 18.1691L1.4436 17.6981C0.721717 16.3871 0.255075 14.952 0.0682373 13.4684L3.7989 10.189L5.56108 10.7627ZM21.3091 19.5732C19.9995 21.1657 18.3002 22.3953 16.375 23.1437L17.7762 19.9157L21.3091 19.5732ZM8.73319 18.0059L7.78763 19.2388L9.7733 23.7854C11.2437 24.0708 12.7556 24.0708 14.226 23.7854L16.2117 19.2388L15.2662 18.0059H8.73319ZM17.5269 9.3246L12.8593 5.9425L12.8421 3.69918L17.1401 1.19043C18.4984 1.82598 19.7234 2.71211 20.7504 3.80193L19.6673 8.63106L17.5269 9.3246ZM2.69049 19.5986C4.00013 21.191 5.69939 22.4207 7.62459 23.1691L6.21485 19.9411L2.69049 19.5986ZM11.14 5.94227L6.47236 9.32438L4.31477 8.63083L3.23167 3.8017C4.26042 2.71158 5.48495 1.82292 6.84199 1.18164L11.14 3.69895V5.94227Z" fill="#253670"/>
</svg>
