<svg width="24" height="24" viewBox="0 0 24 24" fill="none" xmlns="http://www.w3.org/2000/svg">
<path fill-rule="evenodd" clip-rule="evenodd" d="M14.4254 2.57111L16.8339 1.02821C13.7955 -0.321551 10.332 -0.343296 7.27684 0.968212L9.47111 2.57111H14.4254ZM16.6284 6.60014L19.8341 8.61448L22.8255 6.90015C21.8921 4.90767 20.4306 3.20901 18.5998 1.9886L15.5999 3.57435L16.6284 6.60014ZM13.9625 4.28554L14.9139 6.77989L11.7597 8.59708L8.6311 6.79703L9.71967 4.28554H13.9625ZM14.897 17.2289L13.9798 19.7146H9.70269L8.65698 17.2117L11.7598 15.4202L14.897 17.2289ZM4.53394 13.9205V10.0289L7.55106 8.13461L10.8682 10.0461V13.9033L7.55106 15.8148L4.53394 13.9205ZM23.4853 8.57108L20.6653 10.1654V13.9284L23.4681 15.5827C23.8255 14.4221 24.0047 13.2141 23.9996 11.9997C23.9973 10.8378 23.824 9.68253 23.4853 8.57108ZM18.9512 10.0967V13.9882L15.9341 15.8825L12.6169 13.971V10.1138L15.9341 8.20232L18.9512 10.0967ZM15.5398 20.4425L16.6455 17.4253L19.8598 15.4452L22.8255 17.1596C21.6884 19.5654 19.7782 21.5209 17.3998 22.714L15.5398 20.4425ZM9.57407 21.4371L7.96265 23.2886C9.25674 23.7587 10.6229 23.9995 11.9998 24C13.3118 23.9956 14.6144 23.7785 15.8569 23.3571L14.2883 21.4371H9.57407ZM3.65114 15.4025L6.89112 17.434L8.15112 20.4598L6.30827 22.5684C3.96947 21.3072 2.11541 19.3054 1.03687 16.8769L3.65114 15.4025ZM6.89107 6.59163L8.10821 3.46298L5.53679 1.91151C3.565 3.17665 2.00665 4.9913 1.05396 7.13164L3.66823 8.60596L6.89107 6.59163ZM0.471182 8.76796L2.87117 10.1223L2.85403 13.8767L0.454039 15.2395C0.155406 14.1853 0.00255769 13.0952 -0.000244141 11.9995C0.00662826 10.9057 0.165284 9.81813 0.471182 8.76796Z" fill="#253670"/>
</svg>
