<svg width="24" height="24" viewBox="0 0 24 24" fill="none" xmlns="http://www.w3.org/2000/svg">
<path fill-rule="evenodd" clip-rule="evenodd" d="M16.9494 1L13.6654 9.08978L17.1096 10.2912L19.1921 1.80097L16.9494 1ZM12.8644 11.0119L13.6653 12.9343V13.0144C14.0658 14.1357 14.7867 15.0969 15.6677 15.7377C15.7002 15.6403 15.7458 15.543 15.7939 15.4403C15.8645 15.2895 15.9405 15.1273 15.9881 14.9367L16.709 11.893L13.0245 10.6115L12.8644 11.0119ZM4.29404 22.546L5.09501 18.2207C5.4154 18.2207 5.65569 18.2207 5.97608 18.1406L6.69695 22.4659C5.89598 22.626 5.09501 22.626 4.29404 22.546ZM2.05136 17.4996C1.49068 17.3394 0.93 17.6598 0.68971 18.2204L0.0489351 20.0627C-0.111259 20.6233 0.129032 21.3442 0.609613 21.5845C0.93 21.7447 1.33048 21.9049 1.57078 21.985C1.73097 22.025 1.91119 22.0851 2.0914 22.1452C2.27162 22.2053 2.45184 22.2653 2.61203 22.3054L3.413 17.9802C3.25281 17.9802 3.09262 17.9001 3.01252 17.82L2.05136 17.4996ZM7.57816 17.8208H7.65825C8.37913 19.1825 9.42039 20.3038 10.6218 21.265C9.90097 21.5854 9.18009 21.9058 8.37913 22.1461L7.57816 17.8208ZM12.1435 13.4949L10.942 10.6115L7.25758 11.893L7.97846 14.9367C9.26001 18.6211 12.2236 21.2643 15.7479 22.2255L16.5488 17.9003C14.5464 17.1794 12.8644 15.6576 12.1435 13.4949ZM4.85472 1.80097L7.09743 1L10.3814 9.08978L6.93724 10.2912L4.85472 1.80097ZM23.9177 20.0627L23.277 18.2204C23.1168 17.6598 22.476 17.3394 21.9153 17.4996L20.9542 17.82C20.8839 17.8551 20.8137 17.8748 20.7502 17.8926L20.7502 17.8926C20.6689 17.9155 20.5987 17.9352 20.5537 17.9802L21.3546 22.3054C21.4066 22.2924 21.4607 22.2794 21.5163 22.266C21.8029 22.1972 22.1275 22.1192 22.3959 21.985C22.6362 21.9049 23.0367 21.7447 23.3571 21.5845C23.8377 21.3442 24.158 20.7034 23.9177 20.0627ZM17.3498 22.5461L18.0706 18.2208C18.391 18.2208 18.7114 18.2208 18.9517 18.3009L19.7527 22.6262C18.9517 22.6262 18.1507 22.6262 17.3498 22.5461Z" fill="#253670"/>
</svg>
