<svg width="24" height="24" viewBox="0 0 24 24" fill="none" xmlns="http://www.w3.org/2000/svg">
<path fill-rule="evenodd" clip-rule="evenodd" d="M19.9197 15.6351L19.9304 15.6188C20.9058 14.141 21.6484 13.0603 23.6933 12.9181C23.7783 13.1028 23.8633 13.2857 24 13.4483C23.6786 16.016 22.5462 18.4988 20.5751 20.4698C15.8682 25.1749 8.23707 25.1767 3.53017 20.4698C-1.17672 15.7611 -1.17672 8.12993 3.53017 3.42303C5.49938 1.45382 7.98399 0.321429 10.5499 0C10.7716 0.186576 11.0172 0.323276 11.2777 0.41564C10.9914 2.31835 9.90148 3.06835 8.41626 4.05665C7.71983 4.52032 6.99938 5.00062 6.35468 5.64717C4.59052 7.40948 3.56712 9.66502 3.46921 12.0037C3.37315 14.3553 4.21552 16.5462 5.84113 18.1718C7.37808 19.7087 9.43596 20.5548 11.6398 20.5548C14.1096 20.5548 16.4982 19.5259 18.3676 17.6583C19.0036 17.0205 19.4686 16.3172 19.9197 15.6351ZM7.40764 16.6053C4.91934 14.1151 5.1447 9.9883 7.92303 7.21182C8.41072 6.72783 9.00924 6.32512 9.64655 5.90025C11.3627 4.75677 13.3079 3.45998 13.5499 0.10899L13.5591 0C16.1232 0.323276 18.6059 1.45567 20.5751 3.42303C22.5462 5.39409 23.6786 7.87869 24 10.4427C23.9604 10.4891 23.9347 10.5417 23.9088 10.5946C23.8924 10.6281 23.876 10.6617 23.8559 10.694C20.4846 10.803 19.2007 12.7038 18.0794 14.4015L18.0648 14.4235C17.6583 15.0361 17.2739 15.6153 16.7993 16.0917C15.3528 17.5363 13.5203 18.3325 11.6379 18.3325C10.0234 18.3325 8.52155 17.7192 7.40764 16.6053Z" fill="#253670"/>
</svg>
