<svg width="25" height="24" viewBox="0 0 25 24" fill="none" xmlns="http://www.w3.org/2000/svg">
<path fill-rule="evenodd" clip-rule="evenodd" d="M15.9337 2.52C13.351 4.24497 10.9399 6.21401 8.7337 8.4C6.53844 10.6043 4.56126 13.0155 2.8297 15.6C2.49648 14.5662 2.32908 13.4862 2.3337 12.4C2.3337 6.65624 6.98994 2 12.7337 2C13.8211 2.00312 14.9012 2.17863 15.9337 2.52ZM21.5898 17.8958L22.1418 18.1838L22.1098 18.1598C22.8995 18.6565 23.8169 18.9123 24.7498 18.8958V20.4958C23.5623 20.5229 22.3915 20.2122 21.3738 19.5998C19.7505 18.6607 17.7491 18.6607 16.1258 19.5998C14.0336 20.7945 11.4659 20.7945 9.37376 19.5998C7.75046 18.6607 5.74905 18.6607 4.12576 19.5998C3.10797 20.2122 1.93723 20.5229 0.749756 20.4958V18.8958C1.67397 18.9188 2.58514 18.6743 3.37376 18.1918L3.37382 18.1918C3.5498 18.0958 3.72578 17.9998 3.91776 17.9118C3.89355 17.8721 3.86935 17.8327 3.84522 17.7934C3.75772 17.651 3.67128 17.5104 3.58976 17.3598C7.18826 11.6815 11.9994 6.87035 17.6778 3.27184C19.4704 4.2404 20.9412 5.71124 21.9098 7.50384C20.1032 10.3252 18.0035 12.9477 15.6458 15.3278C14.4002 16.5644 13.0804 17.7239 11.6938 18.7998C12.042 18.8648 12.3955 18.8969 12.7498 18.8958C13.3068 18.9108 13.8621 18.8268 14.3898 18.6478C15.2298 17.9358 16.0298 17.2558 16.7898 16.4558C18.9799 14.2534 20.9493 11.8419 22.6698 9.25584C23.6029 12.1541 23.2076 15.3165 21.5898 17.8958Z" fill="#253670"/>
</svg>
