<svg width="24" height="24" viewBox="0 0 24 24" fill="none" xmlns="http://www.w3.org/2000/svg">
<path fill-rule="evenodd" clip-rule="evenodd" d="M21.0664 1H2.93359C1.86743 1 1 1.86743 1 2.93359V3.91566C1 5.50635 1.54718 7.06648 2.541 8.30855C3.36748 9.34164 4.54308 10.1508 5.85127 10.5869L6.53441 10.8145C7.32782 12.1073 8.57224 13.1031 10.0664 13.5761V14.5781C10.0664 14.9335 9.77721 15.2227 9.42188 15.2227C8.35571 15.2227 7.48828 16.0901 7.48828 17.1562V17.8008H6.84375C6.48775 17.8008 6.19922 18.0893 6.19922 18.4453V21.7109H5.55469C5.19868 21.7109 4.91016 21.9995 4.91016 22.3555C4.91016 22.7115 5.19868 23 5.55469 23H18.4453C18.8013 23 19.0898 22.7115 19.0898 22.3555C19.0898 21.9995 18.8013 21.7109 18.4453 21.7109H17.8008V18.4453C17.8008 18.0893 17.5123 17.8008 17.1562 17.8008H16.5117V17.1562C16.5117 16.0901 15.6443 15.2227 14.5781 15.2227C14.2228 15.2227 13.9336 14.9335 13.9336 14.5781V13.5761C15.4261 13.1036 16.6693 12.1096 17.4629 10.8189L18.1833 10.5896L18.1915 10.5869C19.4804 10.1572 20.6104 9.36934 21.459 8.30855C22.4528 7.06648 23 5.50635 23 3.91566V2.93359C23 1.86743 22.1326 1 21.0664 1ZM3.54758 7.50322C2.73604 6.48875 2.28906 5.2148 2.28906 3.91566V2.93359C2.28906 2.57826 2.57826 2.28906 2.93359 2.28906H4.9778L5.63374 8.19257C5.67218 8.53783 5.73915 8.87503 5.8308 9.20233C4.92946 8.8235 4.13 8.23117 3.54758 7.50322ZM20.4524 7.50322C21.264 6.48875 21.7109 5.2148 21.7109 3.91566V2.93359C21.7109 2.57826 21.4217 2.28906 21.0664 2.28906H19.0222L18.3663 8.19257C18.327 8.54488 18.2582 8.88863 18.1635 9.22231C19.0585 8.85237 19.844 8.2639 20.4524 7.50322Z" fill="#253670"/>
</svg>
