<svg width="24" height="24" viewBox="0 0 24 24" fill="none" xmlns="http://www.w3.org/2000/svg">
<path fill-rule="evenodd" clip-rule="evenodd" d="M12.9702 5.02068L11.1664 0L6.62391 9.73532L8.92413 12.0265L12.9702 5.02068ZM0.90656 18.2548C-0.338939 19.6055 -0.296354 21.6981 1.00307 22.997C2.30249 24.296 4.39575 24.3386 5.74695 23.0935L8.163 20.6783L3.32262 15.8396L0.90656 18.2548ZM9.69373 19.4953L4.49756 14.3009L5.87107 11.3646L12.6311 18.1222L9.69373 19.4953ZM10.7114 13.8629L17.852 9.72724L17.5872 6.41872L14.2362 6.13749L10.0991 13.2674L10.7114 13.8629ZM11.9526 15.0706L18.9857 11.0177L23.9998 12.8457L14.2611 17.3866L11.9526 15.0706Z" fill="#253670"/>
</svg>
