<svg width="24" height="24" viewBox="0 0 24 24" fill="none" xmlns="http://www.w3.org/2000/svg">
<path fill-rule="evenodd" clip-rule="evenodd" d="M8.18691 8.82943H10.7555C10.5949 6.02007 9.87253 2.56856 8.90932 0C6.66182 0.160535 4.65513 1.04348 3.04978 2.48829L5.45781 4.49498C6.98289 5.699 7.86584 7.22408 8.18691 8.82943ZM6.3407 14.4482H10.3541C10.5949 13.0836 10.7554 11.7191 10.8357 10.4348H8.26712C8.10659 11.8796 7.46445 13.3244 6.3407 14.4482ZM2.0062 3.69252L4.49449 5.77947C5.53797 6.66242 6.26038 7.7059 6.58145 8.82964H-0.000488281C0.160047 6.90322 0.882455 5.13733 2.0062 3.69252ZM19.1032 8.82964C19.023 7.38482 18.5414 6.02028 17.8992 4.89653C16.8558 6.10054 16.1333 7.46509 15.9728 8.82964H19.1032ZM16.9359 3.53198C15.4108 5.05707 14.5278 6.90322 14.287 8.82964H12.3606C12.2001 6.02028 11.5579 2.72931 10.5947 0.0804766C13.1633 0.401547 15.4108 1.68583 16.9359 3.53198ZM-0.000488281 10.4348C0.160047 12.4415 0.962723 14.2876 2.16674 15.7324L4.49449 13.9666C5.77878 13.0033 6.50118 11.7191 6.66172 10.4348H-0.000488281ZM12.441 10.4348H14.2871C14.3674 11.8796 14.849 13.1639 15.6517 14.4482H12.0396C12.2804 13.0836 12.441 11.7191 12.441 10.4348ZM15.8926 10.4348C15.9729 11.8796 16.615 13.2441 17.4979 14.4482H17.819C18.5414 13.2441 18.9428 11.8796 19.1033 10.4348H15.8926ZM9.55125 19.9864V20.0667C10.5145 20.2272 11.1566 20.9496 11.1566 21.8326C11.1566 23.0366 9.95259 23.9998 8.4275 23.9998C6.90242 23.9998 5.85894 23.1168 5.77867 21.8326H6.90242C6.98269 22.555 7.62483 23.0366 8.50777 23.0366C9.39071 23.0366 10.0329 22.555 10.0329 21.8326C10.0329 21.1102 9.47098 20.6286 8.50777 20.6286H7.54456V19.6653H8.4275C9.23018 19.6653 9.79205 19.1837 9.79205 18.4613C9.79205 17.8192 9.23018 17.3376 8.4275 17.3376C7.62483 17.3376 7.14322 17.8192 7.06295 18.5416H5.93921C6.01947 17.177 6.98269 16.3744 8.4275 16.3744C9.79205 16.3744 10.8355 17.177 10.8355 18.3008C10.8355 19.1837 10.3539 19.8259 9.55125 19.9864ZM16.6951 18.7019L15.17 20.227L13.6449 18.7019L13.0028 19.4243L14.5278 20.9494L13.0028 22.4745L13.6449 23.1969L15.17 21.6718L16.6951 23.1969L17.3372 22.4745L15.8121 20.9494L17.3372 19.4243L16.6951 18.7019ZM22.3941 19.9864V20.0667C23.3573 20.2272 23.9994 20.9496 23.9994 21.8326C23.9994 23.0366 22.7954 23.9998 21.2703 23.9998C19.7452 23.9998 18.7017 23.1168 18.6215 21.8326H19.7452C19.8255 22.555 20.4676 23.0366 21.3506 23.0366C22.2335 23.0366 22.8757 22.555 22.8757 21.8326C22.8757 21.1102 22.3138 20.6286 21.3506 20.6286H20.3874V19.6653H21.2703C22.073 19.6653 22.6349 19.1837 22.6349 18.4613C22.6349 17.8192 22.073 17.3376 21.2703 17.3376C20.4676 17.3376 19.986 17.8192 19.9058 18.5416H18.782C18.8623 17.177 19.8255 16.3744 21.2703 16.3744C22.6349 16.3744 23.6783 17.177 23.6783 18.3008C23.6783 19.1837 23.1967 19.8259 22.3941 19.9864Z" fill="#253670"/>
</svg>
