<svg width="25" height="24" viewBox="0 0 25 24" fill="none" xmlns="http://www.w3.org/2000/svg">
<path fill-rule="evenodd" clip-rule="evenodd" d="M6.94951 9.65644C7.18752 9.7982 7.43564 9.92226 7.69185 10.0276C7.82921 8.73505 8.23638 7.48571 8.88703 6.36043C9.95078 4.62172 11.4987 3.23115 13.3411 2.35919C13.0257 2.32181 12.7085 2.30199 12.3909 2.2998C8.97877 2.30274 5.86811 4.25447 4.381 7.32548C5.05444 8.28268 5.93164 9.07875 6.94951 9.65644ZM10.2013 7.10322C9.61629 8.1179 9.27096 9.25291 9.19176 10.4215C10.0705 10.5481 10.9661 10.4874 11.8197 10.2433C12.3774 8.31842 13.6565 6.68301 15.3903 5.67791C16.3124 5.15597 17.3165 4.7945 18.3597 4.60894C17.6689 3.98417 16.885 3.47075 16.0362 3.08713C13.6107 3.5403 11.4907 4.99951 10.2013 7.10322ZM17.8994 10.4283C17.2449 9.29635 16.3566 8.31695 15.2938 7.55542C15.5576 7.3383 15.8381 7.14221 16.1326 6.96897C17.1854 6.31459 18.4134 5.99851 19.6513 6.06331C22.069 9.45151 21.8034 14.0655 19.0129 17.1539C19.3185 14.8512 18.9308 12.5096 17.8994 10.4283ZM10.0304 14.2368C11.1291 14.2371 12.2151 14.0016 13.2151 13.5465C12.8771 12.8879 12.4246 12.2947 11.8789 11.7945C9.95277 12.26 7.92134 11.9649 6.20735 10.9705C5.30868 10.4335 4.48918 9.77387 3.77246 9.01074C3.59872 9.69295 3.50407 10.3929 3.49037 11.0967C4.65585 12.6928 7.82566 14.1775 10.0304 14.1775V14.2368ZM24.4236 19.5834L24.432 19.5893L24.8997 19.8937L24.046 21.1185L23.5634 20.7696L23.5325 20.748C21.9629 19.6499 20.4862 18.6168 17.6247 18.6168C16.6923 18.6233 15.7671 18.7812 14.8854 19.0845L15.6278 19.6635C16.6819 20.4653 17.5876 21.1482 18.4784 21.1482V22.6329C17.1273 22.6329 16.0015 21.7832 14.8062 20.8811L14.7667 20.8513C13.3265 19.7526 11.8344 18.6243 9.67417 18.6243C6.78649 18.6243 5.03613 19.9019 3.00878 21.3817L2.99307 21.3932C2.89574 21.464 2.79841 21.5352 2.70078 21.6066C2.38885 21.8348 2.07385 22.0653 1.74593 22.2914L0.899658 21.074C1.19506 20.8683 1.48296 20.6588 1.76869 20.4509C1.88507 20.3662 2.00108 20.2818 2.1171 20.198C3.39014 19.1665 4.80845 18.3285 6.3262 17.7112C5.07185 16.5454 4.18008 15.0428 3.75768 13.3833C5.57073 14.7566 7.75219 15.5578 10.0231 15.6846C11.2984 15.6976 12.5625 15.4448 13.7348 14.9422C13.8519 15.4285 13.9117 15.9268 13.913 16.4269C13.9067 16.9608 13.8344 17.4919 13.6977 18.0081C14.2269 17.7934 14.77 17.6148 15.3234 17.4736C15.3707 17.1267 15.3955 16.7771 15.3976 16.4269C15.3962 14.3981 14.5962 12.4514 13.1706 11.0078C13.3695 10.1733 13.7357 9.38792 14.247 8.69911C15.2159 9.35195 16.0253 10.2146 16.6151 11.2231C17.5016 13.0683 17.8145 15.137 17.5133 17.1618H17.647C20.9891 17.1618 22.8148 18.449 24.4236 19.5834Z" fill="#253670"/>
</svg>
