<svg width="24" height="24" viewBox="0 0 24 24" fill="none" xmlns="http://www.w3.org/2000/svg">
<path fill-rule="evenodd" clip-rule="evenodd" d="M14.2866 0C16.8392 0.0672627 19.2665 1.04329 21.0676 2.72662V2.75075C22.8631 4.4218 23.9108 6.66357 23.9997 9.02438L22.4947 10.4158C19.8173 12.9079 15.4744 12.9097 12.7946 10.4199C10.1148 7.93007 10.1129 3.89152 12.7903 1.3995L14.2866 0ZM17.6863 13.8584C14.0882 13.8662 10.871 11.7752 9.6425 8.63033L7.43694 10.6813L6.2174 9.54724L9.17544 6.7965C9.00152 5.3827 9.23123 3.95124 9.84143 2.64625C8.60674 1.66629 6.76963 1.73281 5.62061 2.79907L5.22274 3.16905C4.29933 4.12353 3.75856 5.34519 3.69183 6.62759V12.5393L12.0297 20.2929L19.0788 13.7377C18.6162 13.8145 18.1475 13.8549 17.6776 13.8584H17.6863ZM0.603752 15.9577C0.217123 16.3154 -0.000244141 16.8017 -0.000244141 17.3089C-0.000244141 17.8161 0.217123 18.3024 0.603752 18.6601L5.74139 23.4378C6.12758 23.7978 6.65195 24.0001 7.19878 24.0001C7.74562 24.0001 8.26999 23.7978 8.65618 23.4378L10.8185 21.427L2.76606 13.9469L0.603752 15.9577Z" fill="#253670"/>
</svg>
