<svg width="24" height="24" viewBox="0 0 24 24" fill="none" xmlns="http://www.w3.org/2000/svg">
<path fill-rule="evenodd" clip-rule="evenodd" d="M15.528 15.9854C15.5426 17.0762 14.6775 17.9759 13.587 18.0041H12.293C11.2039 17.9805 10.3375 17.0833 10.352 15.9941V8.65266H8.62661V18.0213H8.41094H7.11692C6.61257 18.0473 6.1196 17.8655 5.75284 17.5183C5.38609 17.1711 5.17759 16.6889 5.17589 16.1838V10.3694H3.45054V17.0897C3.3789 17.0981 3.30651 17.0981 3.23487 17.0897H1.94085C0.848353 17.0661 -0.0194328 16.1636 -0.000173824 15.071V7.51393C0.0323329 6.36031 0.779027 5.34866 1.87184 4.97765L3.29526 4.39966C3.75749 4.21239 4.2848 4.28904 4.67459 4.60016C4.94622 4.81696 5.12163 5.12412 5.17589 5.457V4.17536C5.17589 2.88997 6.0472 1.72536 7.11692 1.72536H8.41094C9.47959 1.74843 10.3332 2.61246 10.352 3.67275V2.01867C10.3374 0.927945 11.2025 0.0282362 12.293 0H13.587C14.6775 0.0282362 15.5426 0.927945 15.528 2.01867V2.99349C15.528 1.88064 16.3648 1.47518 17.4 1.76849L18.8321 2.37236C19.9345 2.76052 20.6805 3.79186 20.7041 4.9604V14.3205C20.7234 15.413 19.8556 16.3155 18.7631 16.3391H17.4691C17.3972 16.3439 17.3252 16.3439 17.2534 16.3391V8.64404H15.528V14.3118V15.9854ZM22.4294 14.3294V12.0261L23.9995 17.9613L23.1368 21.2912C22.7795 22.4275 21.7395 23.2109 20.5488 23.2409H15.528V20.6528H13.8026V23.2409C12.8296 23.0642 12.126 22.2111 12.1377 21.2222V19.7125H12.293H13.587C14.8507 19.7125 16.025 19.0602 16.6926 17.9872C16.9478 18.0424 17.208 18.0713 17.469 18.0734H18.763C20.8084 18.0497 22.4486 16.3748 22.4294 14.3294Z" fill="#253670"/>
</svg>
