<svg width="24" height="24" viewBox="0 0 24 24" fill="none" xmlns="http://www.w3.org/2000/svg">
<path fill-rule="evenodd" clip-rule="evenodd" d="M-0.000488281 12C-0.000488281 5.37258 5.3721 0 11.9995 0C18.6269 0 23.9995 5.37258 23.9995 12C23.9995 18.6274 18.6269 24 11.9995 24C5.3721 24 -0.000488281 18.6274 -0.000488281 12ZM6.82233 19.6883C7.28687 19.6978 7.73539 19.5184 8.06519 19.1911C8.8077 18.2853 8.68147 16.9503 7.78233 16.1997C7.33338 15.7288 6.71821 15.452 6.06804 15.4283C5.56337 15.4221 5.08165 15.6387 4.75128 16.0203C4.42092 16.4019 4.27549 16.9096 4.35376 17.4083C4.42843 17.9816 4.69416 18.5131 5.10804 18.9168C5.55858 19.3855 6.17279 19.6618 6.82233 19.6883ZM7.79112 7.77435C7.34217 8.24523 6.727 8.52205 6.07683 8.54578C5.57216 8.55189 5.09044 8.33529 4.76007 7.95372C4.42971 7.57215 4.28428 7.06439 4.36255 6.56578C4.54135 5.30687 5.58697 4.35108 6.85683 4.28578C7.32137 4.27622 7.7699 4.45563 8.09969 4.78292C8.8361 5.69551 8.69831 7.0313 7.79112 7.77435ZM9.42822 11.9996C9.42822 13.4197 10.5795 14.571 11.9997 14.571C13.4198 14.571 14.5711 13.4197 14.5711 11.9996C14.5711 10.5794 13.4198 9.42813 11.9997 9.42813C10.5795 9.42813 9.42822 10.5794 9.42822 11.9996ZM19.7138 17.4083C19.6391 17.9816 19.3734 18.5131 18.9595 18.9168C18.509 19.3855 17.8948 19.6618 17.2452 19.6883C16.7807 19.6978 16.3321 19.5184 16.0024 19.1911C15.2578 18.2875 15.3802 16.9528 16.2766 16.1997C16.7256 15.7288 17.3408 15.452 17.9909 15.4283C18.4956 15.4221 18.9773 15.6387 19.3077 16.0203C19.638 16.4019 19.7835 16.9096 19.7052 17.4083H19.7138ZM17.9824 8.54542C18.4499 8.55733 18.9019 8.37774 19.2338 8.04827H19.1995C19.5756 7.65306 19.7411 7.10247 19.6452 6.56542C19.4658 5.30348 18.4155 4.34673 17.1424 4.28542C16.7106 4.30046 16.3003 4.47802 15.9938 4.78256C15.2492 5.68614 15.3716 7.02088 16.2681 7.77399C16.717 8.24486 17.3322 8.52169 17.9824 8.54542Z" fill="#253670"/>
</svg>
