<svg width="24" height="24" viewBox="0 0 24 24" fill="none" xmlns="http://www.w3.org/2000/svg">
<path fill-rule="evenodd" clip-rule="evenodd" d="M16.9616 7.06018C19.516 9.57004 22.4818 10.7476 23.5875 9.6388V9.63021C24.6847 8.54719 23.5189 5.59896 20.9646 3.04613C18.4102 0.493297 15.4359 -0.692868 14.3387 0.415939C13.2415 1.52475 14.4073 4.55033 16.9616 7.06018ZM21.8302 14.3152C22.3122 13.4862 22.7361 12.6246 23.0988 11.7365C22.8722 11.775 22.6429 11.7951 22.4131 11.7967C20.4588 11.7967 17.9644 10.473 15.7529 8.24682C13.1814 5.6682 11.9128 2.89188 12.2643 0.88056C11.3606 1.24746 10.4841 1.67832 9.64136 2.16987C9.85565 4.65394 11.3128 7.44744 13.9272 10.069C16.5415 12.6906 19.3016 14.1003 21.8302 14.3066V14.3152ZM8.03877 3.19216C9.72514 9.4105 14.5896 14.2556 20.8019 15.9048C20.1224 16.8727 19.3626 17.7813 18.5304 18.6209C17.2702 19.8877 15.8494 20.9829 14.3046 21.8786H14.0389C11.3817 21.8786 8.28734 20.3142 5.56157 17.5809C3.61767 15.7695 2.20394 13.4602 1.4729 10.9022C2.47135 8.87722 3.79471 7.03042 5.39013 5.43556C6.20739 4.61316 7.09352 3.86261 8.03877 3.19216ZM0.0496598 14.8223C0.169663 14.3237 0.323952 13.8252 0.486813 13.3267V13.3181C1.41102 15.3628 2.70752 17.2168 4.30976 18.7847C6.27384 20.8494 8.73173 22.3761 11.4499 23.22C10.6981 23.5138 9.92786 23.7579 9.14416 23.9506C9.14416 23.9506 6.5041 24.621 2.9383 21.0453C-0.618927 17.4697 0.0496598 14.8223 0.0496598 14.8223Z" fill="#253670"/>
</svg>
