<svg width="24" height="24" viewBox="0 0 24 24" fill="none" xmlns="http://www.w3.org/2000/svg">
<path fill-rule="evenodd" clip-rule="evenodd" d="M17.6561 9.103C18.4916 9.77389 19.3154 10.4354 19.9057 11.3571C21.4074 13.7178 21.8476 17.0751 20.3976 19.5668C19.6985 20.7733 18.7664 21.7963 17.6272 22.5569C16.6692 23.1864 15.6076 23.6061 14.4942 23.8159C13.0961 24.0782 11.6202 24.052 10.222 23.7897C9.93722 23.7372 9.6783 23.6585 9.41938 23.5798C9.18635 23.5012 8.95333 23.3962 8.74619 23.2913C7.55516 22.7143 6.41591 21.9274 5.48379 20.9832C4.60346 20.0914 3.90438 19.0422 3.46421 17.8619C2.99816 16.6292 2.89459 15.2915 3.10173 14.0063C3.29407 12.7073 3.82377 11.5893 4.35914 10.4593C4.6886 9.7639 5.0202 9.06398 5.27666 8.31458C4.62936 10.2031 5.58736 13.2456 7.37391 14.2161C7.47748 14.2686 7.58105 14.321 7.68462 14.2948C7.81408 14.2423 7.89175 14.085 7.91764 13.9538C8.05281 13.3377 7.86825 12.7997 7.68051 12.2524C7.58055 11.961 7.47968 11.667 7.4257 11.3571C7.27034 10.4391 7.27034 9.46866 7.29624 8.55065C7.3998 6.11135 8.69441 4.01303 10.4292 2.38684C11.0247 1.8098 11.6979 1.28522 12.4229 0.865556C12.7067 0.688585 13.009 0.548928 13.2987 0.415115C13.3525 0.390268 13.4058 0.365622 13.4585 0.340977C13.5031 0.313913 13.5874 0.280645 13.6821 0.243305C13.8626 0.172079 14.0808 0.0860395 14.1317 0C13.0184 1.96717 13.7434 4.53761 14.9344 6.26872C14.9473 6.29495 14.9668 6.32118 14.9862 6.34741C15.0056 6.37364 15.025 6.39987 15.038 6.4261C15.737 7.39657 16.5915 8.2359 17.5236 8.99654C17.5678 9.03208 17.6119 9.06755 17.6561 9.103ZM9.85712 18.488C9.85712 18.488 12.8469 20.9927 15.0485 17.8274C15.0485 17.8274 17.4131 14.3318 12.0859 10.2857C12.0859 10.2857 13.5808 17.9925 9.85712 18.488Z" fill="#253670"/>
</svg>
