<svg width="24" height="24" viewBox="0 0 24 24" fill="none" xmlns="http://www.w3.org/2000/svg">
<path fill-rule="evenodd" clip-rule="evenodd" d="M15.0166 7.92617C14.0714 9.06421 13.4068 10.4084 13.0762 11.8504C16.1472 14.8553 17.1749 19.38 15.7034 23.4169C17.3912 22.8737 18.9368 21.9615 20.2281 20.7464C21.5911 15.7859 19.4538 10.5282 15.0166 7.92617ZM8.8005 6.11438C7.78595 7.87036 7.25837 9.86534 7.27224 11.8934C8.63152 12.1199 10.024 12.0436 11.3505 11.6701C12.247 7.29974 15.6979 3.90607 20.0822 3.0832C18.8703 1.99056 17.4514 1.15251 15.9095 0.61876C12.9186 1.46266 10.3708 3.43228 8.8005 6.11438ZM14.1322 16.6586C13.7 15.3771 12.9939 14.205 12.0631 13.2239C9.13277 14.1383 5.95349 13.7832 3.29701 12.245C2.14118 11.5528 1.1011 10.6835 0.214717 9.66891C-0.102913 11.3062 -0.0677891 12.9923 0.317746 14.615C3.99392 18.2265 9.59157 19.0268 14.1322 16.5899V16.6586ZM21.5075 4.63653C20.0966 4.73168 18.7257 5.14565 17.4979 5.84729C17.0747 6.10056 16.6727 6.38773 16.2959 6.70598C20.1716 9.20379 22.4529 13.552 22.3059 18.1609C24.8465 13.9157 24.505 8.54299 21.4474 4.65371L21.5075 4.63653ZM8.5859 19.7752C6.08666 19.777 3.63654 19.0811 1.51123 17.7659C3.61822 21.6024 7.64366 23.9904 12.0202 24C12.5631 23.9948 13.1051 23.9546 13.6429 23.8798C14.3052 22.5824 14.6495 21.1461 14.6474 19.6894C14.6437 19.2496 14.6093 18.8106 14.5444 18.3756C12.6906 19.2895 10.6527 19.7682 8.5859 19.7752ZM4.18142 10.7851C4.63027 11.0363 5.09821 11.2516 5.5809 11.4292C5.64984 9.25754 6.25446 7.13664 7.34098 5.25518C8.65281 3.02095 10.5656 1.20009 12.8616 0C12.5869 0 12.3207 0 12.046 0C7.06587 0.00238274 2.60299 3.07593 0.824383 7.72821C1.70617 8.97133 2.84158 10.0132 4.15566 10.7851H4.18142Z" fill="#253670"/>
</svg>
